<svg fill="none" xmlns="http://www.w3.org/2000/svg" viewBox="0 0 101 98"><path d="m7.82841 90.5599-2.12132-2.1213-2.12132 2.1213 2.12132 2.1213 2.12132-2.1213ZM47.7799 50.6084l2.1214 2.1213 2.1213-2.1213-2.1213-2.1213-2.1214 2.1213ZM10.6568 93.3883l-2.12128 2.1214 2.12128 2.1213 2.1214-2.1213-2.1214-2.1214Zm39.9516-39.9515 2.1213-2.1213-2.1213-2.1213-2.1214 2.1213 2.1214 2.1213Zm39.9515 39.9516-2.1213 2.1213 2.1213 2.1213 2.1213-2.1213-2.1213-2.1213Zm2.8284-2.8285 2.1214 2.1214 2.1213-2.1214-2.1213-2.1213-2.1214 2.1213ZM53.4368 50.6084l-2.1213-2.1213-2.1213 2.1213 2.1213 2.1213 2.1213-2.1213Zm42.78-42.77997 2.1213 2.12132 2.1209-2.12132-2.1209-2.12132-2.1213 2.12132ZM93.3883 5l2.1214-2.12132L93.3883.757361 91.267 2.87868 93.3883 5ZM50.6084 47.78l-2.1213 2.1213 2.1213 2.1213 2.1213-2.1213-2.1213-2.1213ZM7.82843 5.00001l2.12132-2.12132L7.82843.75737 5.70711 2.87869l2.12132 2.12132ZM5 7.82844 2.87868 5.70712.757359 7.82844 2.87868 9.94976 5 7.82844ZM9.94973 92.6812 49.9013 52.7297l-4.2427-4.2426L5.70709 88.4386l4.24264 4.2426Zm2.82847-1.4142-2.82847-2.8284-4.24264 4.2426 2.82843 2.8285 4.24268-4.2427ZM48.487 51.3155 8.53552 91.267l4.24268 4.2427 39.9515-39.9516-4.2427-4.2426ZM92.6812 91.267 52.7297 51.3155l-4.2427 4.2426 39.9516 39.9516 4.2426-4.2427Zm-1.4142-2.8284-2.8284 2.8284 4.2426 4.2427 2.8285-2.8284-4.2427-4.2427ZM51.3155 52.7297 91.267 92.6813l4.2427-4.2427-39.9516-39.9515-4.2426 4.2426ZM94.0954 5.70711 51.3155 48.4871l4.2426 4.2426 42.78-42.77995-4.2427-4.24264ZM91.267 7.12132l2.8285 2.82843 4.2426-4.24264-2.8284-2.82843-4.2427 4.24264ZM52.7297 49.9013l42.78-42.77998-4.2427-4.24264L48.4871 45.6586l4.2426 4.2427ZM5.70711 7.12133 48.4871 49.9013l4.2426-4.2427L9.94975 2.87869 5.70711 7.12133Zm1.41421 2.82843 2.82843-2.82843-4.24264-4.24264-2.82843 2.82843 4.24264 4.24264ZM49.9013 48.4871 7.12132 5.70712 2.87868 9.94976 45.6586 52.7297l4.2427-4.2426Z" fill="url(#a)"/><defs><linearGradient id="a" x1="50.6084" y1="5" x2="50.6084" y2="93.3884" gradientUnits="userSpaceOnUse"><stop stop-color="#A71616"/><stop offset="1" stop-color="#EE4242"/></linearGradient></defs></svg>