<svg xmlns="http://www.w3.org/2000/svg" viewBox="0 0 79.2 84.7" style="enable-background:new 0 0 79.2 84.7" xml:space="preserve"><linearGradient id="a" gradientUnits="userSpaceOnUse" x1="39.65" y1=".8405" x2="39.65" y2="81.9985"><stop offset="0" style="stop-color:#5cbcea"/><stop offset="1" style="stop-color:#8b1c1b"/></linearGradient><path style="fill:url(#a)" d="M8.3 36.6C5.5 39.4 4 43.2 4 47.1 4 55.3 10.6 62 18.8 62c4 0 7.7-1.5 10.5-4.4 1.5-1.5 2.6-3.3 3.4-5.2h13.9C48.7 58 54.1 62 60.4 62c4 0 7.7-1.5 10.5-4.4 2.8-2.8 4.4-6.5 4.4-10.5 0-8.2-6.7-14.9-14.9-14.9-2.4 0-4.7.6-6.8 1.6-.9-1.3-1.9-2.6-3.1-3.7-.7-.7-1.8-.7-2.6-.1-.1.1-8.3 6.2-16.1.6l-4.1-6.4c2.7 3.3 6.9 5.5 11.5 5.5 4 0 7.7-1.5 10.5-4.4 2.8-2.8 4.4-6.5 4.4-10.5C54.1 6.7 47.4 0 39.2 0c-4 0-7.7 1.5-10.5 4.4-2.8 2.8-4.4 6.5-4.4 10.5 0 2.4.6 4.7 1.6 6.7l-5-7.7c-1.5-2.3-4.7-3-7-1.5s-3 4.7-1.5 7l8.4 13c-.7-.1-1.4-.2-2.1-.2-3.9.1-7.6 1.6-10.4 4.4zM31.6 7.2c2-2 4.7-3.2 7.6-3.2C45.2 4 50 8.9 50 14.8c0 2.9-1.1 5.6-3.2 7.7-2 2.1-4.8 3.2-7.7 3.2-6 0-10.8-4.9-10.8-10.8.1-2.9 1.2-5.6 3.3-7.7zm21.1 32.2c2.1-2.1 4.8-3.2 7.7-3.2 6 0 10.9 4.9 10.9 10.9 0 2.9-1.1 5.6-3.2 7.7-2.1 2-4.8 3.2-7.7 3.2-6 0-10.9-4.9-10.9-10.9.1-2.9 1.2-5.6 3.2-7.7zM15.3 17.6c-.3-.4-.3-.9-.2-1.3.1-.5.4-.9.8-1.1.8-.5 2-.3 2.5.5l9.7 15 2.5 3.9.2.2c.7.4 1.4.8 2.1 1.1.6.2 1.2.5 1.8.7 6.2 1.8 11.9-.8 14.3-2.2.6.6 1 1.3 1.5 2l-.4.4c-2.8 2.8-4.4 6.5-4.4 10.5 0 .4 0 .9.1 1.3h-12c0-.4.1-.9.1-1.3 0-5.6-3.2-10.5-7.8-13.1l-.2-.3-10.6-16.3zm14.4 29.5c0 2.9-1.1 5.6-3.2 7.7-2.1 2.1-4.8 3.2-7.7 3.2C12.8 58 8 53.1 8 47.1c0-2.9 1.1-5.6 3.2-7.7 2.1-2.1 4.8-3.2 7.7-3.2 5.9.1 10.8 4.9 10.8 10.9z"/><linearGradient id="b" gradientUnits="userSpaceOnUse" x1="18.8008" y1=".8405" x2="18.8008" y2="81.9985"><stop offset="0" style="stop-color:#5cbcea"/><stop offset="1" style="stop-color:#8b1c1b"/></linearGradient><path style="fill:url(#b)" d="M.6 84.1c.4.4.9.6 1.4.6h33.6c1.1 0 2-.9 2-1.9 0-.5.3-13.1-7.5-20.3-.7-.7-1.8-.7-2.6-.1-.4.3-8.8 6.5-16.8 0-.8-.6-1.8-.6-2.6 0-.3.3-7.9 7-8.1 20.2 0 .6.2 1.1.6 1.5zm9-17.5c7.1 4.7 14.6 2.5 18.8 0 3.9 4.5 4.9 11 5.1 14.2H4c.7-7.5 3.9-12.2 5.6-14.2z"/><linearGradient id="c" gradientUnits="userSpaceOnUse" x1="60.4008" y1=".8405" x2="60.4008" y2="81.9985"><stop offset="0" style="stop-color:#5cbcea"/><stop offset="1" style="stop-color:#8b1c1b"/></linearGradient><path style="fill:url(#c)" d="M69.1 62.3c-.4.3-8.8 6.5-16.8 0-.8-.6-1.8-.6-2.6 0-.3.3-7.9 7-8.1 20.2 0 .5.2 1.1.6 1.4.4.4.9.6 1.4.6h33.6c1.1 0 2-.9 2-1.9 0-.5.3-13.1-7.5-20.3-.7-.5-1.8-.6-2.6 0zm6.1 18.4H45.7c.6-7.4 3.8-12.1 5.5-14.1 7.1 4.7 14.6 2.5 18.8 0 4 4.4 4.9 10.9 5.2 14.1z"/></svg>