<svg xmlns="http://www.w3.org/2000/svg" viewBox="0 0 89.7 89.7" style="enable-background:new 0 0 89.7 89.7" xml:space="preserve"><linearGradient id="a" gradientUnits="userSpaceOnUse" x1="44.8354" y1=".2171" x2="44.8354" y2="88.2837"><stop offset="0" style="stop-color:#5cbcea"/><stop offset="1" style="stop-color:#8b1c1b"/></linearGradient><path style="fill:url(#a)" d="M77 13.7C68.5 4.9 57.1 0 44.8 0 33.1 0 22 4.5 13.6 12.7 4.8 21.2 0 32.6 0 44.8 0 57 4.8 68.5 13.6 77c8.4 8.2 19.5 12.7 31.2 12.7C57 89.7 68.5 84.8 77 76c8.1-8.4 12.6-19.5 12.6-31.1.1-11.7-4.4-22.8-12.6-31.2.1 0 0 0 0 0zM15 17c6.7 7.1 10.5 16.2 11 25.9H4c.5-9.8 4.4-18.8 11-25.9zM4 46.8h22c-.5 9.7-4.3 18.8-11 25.9C8.4 65.6 4.5 56.5 4 46.8zm38.8 38.8c-9.3-.4-18-4-25-10.1l.1-.1c.2-.2.3-.4.5-.6.3-.4.6-.7.9-1.1.2-.2.4-.5.6-.7.3-.3.6-.7.8-1 .2-.2.4-.5.6-.7.2-.3.5-.7.7-1 .2-.3.4-.5.5-.8.2-.3.4-.7.7-1 .2-.3.3-.6.5-.8.2-.3.4-.7.6-1 .2-.3.3-.6.5-.9.2-.4.4-.7.5-1.1.1-.3.3-.6.4-.9.2-.4.3-.7.5-1.1.1-.3.3-.6.4-.9.2-.4.3-.7.4-1.1l.3-.9c.1-.4.3-.8.4-1.1l.3-.9.3-1.2c.1-.3.2-.6.2-.9l.3-1.2c.1-.3.1-.6.2-.9.1-.4.2-.9.2-1.3 0-.3.1-.6.1-.9.1-.5.1-.9.2-1.4 0-.3.1-.5.1-.8.1-.5.1-1.1.1-1.6v-.8h12.9v38.8zm0-42.8H30V42c0-.5-.1-1.1-.1-1.6 0-.3-.1-.5-.1-.8-.1-.5-.1-.9-.2-1.4 0-.3-.1-.6-.1-.9-.1-.4-.1-.9-.2-1.3-.1-.3-.1-.6-.2-.9l-.3-1.2c-.1-.3-.2-.6-.2-.9l-.3-1.2-.3-.9c-.1-.4-.3-.8-.4-1.2l-.3-.9c-.1-.4-.3-.7-.4-1.1-.1-.3-.2-.6-.4-.9-.2-.4-.3-.7-.5-1.1-.1-.3-.3-.6-.4-.9-.2-.4-.4-.7-.6-1.1-.2-.3-.3-.6-.5-.8-.2-.4-.4-.7-.6-1-.2-.3-.3-.6-.5-.8-.2-.3-.4-.7-.7-1-.2-.3-.3-.5-.5-.8-.2-.3-.5-.7-.7-1-.2-.2-.4-.5-.5-.7-.3-.3-.5-.7-.8-1-.2-.2-.4-.5-.6-.7-.3-.4-.6-.7-1-1.1-.2-.2-.3-.4-.5-.6l-.1-.1C25 8 33.7 4.4 43 4v38.8zm4-38.8c9.8.5 18.9 4.4 26 11.1 0 0 0 .1-.1.1-.2.2-.3.4-.5.6-.3.3-.6.7-.8 1-.2.2-.4.5-.5.7-.3.3-.5.6-.7 1-.2.2-.3.5-.5.7-.2.3-.5.7-.7 1-.2.3-.3.5-.5.8-.2.3-.4.7-.6 1-.2.3-.3.5-.5.8-.2.3-.4.7-.6 1-.1.3-.3.6-.4.8-.2.3-.3.7-.5 1-.1.3-.3.6-.4.9-.2.3-.3.7-.5 1-.1.3-.2.6-.4.9-.1.4-.3.7-.4 1.1l-.3.9c-.1.4-.2.7-.4 1.1l-.3.9c-.1.4-.2.7-.3 1.1-.1.3-.2.6-.2.9-.1.4-.2.8-.3 1.1-.1.3-.1.6-.2.9-.1.4-.1.8-.2 1.2 0 .3-.1.6-.1.9-.1.4-.1.8-.2 1.3 0 .3-.1.5-.1.8 0 .5-.1.9-.1 1.4v.8H46.8V4zm0 81.6V46.8h14.8v.8c0 .5.1.9.1 1.4 0 .3.1.5.1.8 0 .4.1.8.2 1.3 0 .3.1.6.1.9.1.4.1.8.2 1.2.1.3.1.6.2.9.1.4.2.8.3 1.1.1.3.2.6.2.9.1.4.2.7.3 1.1l.3.9c.1.4.2.7.4 1.1l.3.9c.1.4.3.7.4 1.1.1.3.2.6.4.9.1.4.3.7.5 1 .1.3.3.6.4.9.2.3.3.7.5 1 .1.3.3.6.4.8.2.3.4.7.6 1 .2.3.3.5.5.8.2.3.4.7.6 1 .2.3.3.5.5.8.2.3.4.7.7 1 .2.2.3.5.5.7.2.3.5.7.7 1 .2.2.4.5.5.7.3.3.6.7.8 1 .2.2.3.4.5.6 0 0 0 .1.1.1-7.2 6.8-16.3 10.7-26.1 11.1zm28.8-14c-6.1-6.9-9.6-15.6-10-24.8h20c-.4 9.2-3.9 17.9-10 24.8zm-10-28.8c.4-9.2 3.9-17.9 10-24.8 6.1 6.9 9.6 15.6 10 24.8h-20z"/></svg>