<svg fill="none" xmlns="http://www.w3.org/2000/svg" viewBox="0 0 36 36"><path d="M3 16.5 10.5 3 18 16.5H3Zm7.5 15c-1.65 0-3.0625-.5875-4.2375-1.7625C5.0875 28.5625 4.5 27.15 4.5 25.5s.5875-3.0625 1.7625-4.2375C7.4375 20.0875 8.85 19.5 10.5 19.5s3.0625.5875 4.2375 1.7625C15.9125 22.4375 16.5 23.85 16.5 25.5s-.5875 3.0625-1.7625 4.2375C13.5625 30.9125 12.15 31.5 10.5 31.5Zm9 0v-12h12v12h-12Zm6-15c-1.425-1.2-2.6185-2.2125-3.5805-3.0375-.963-.825-1.732-1.55-2.307-2.175-.575-.625-.9875-1.2125-1.2375-1.7625S18 8.3875 18 7.7625c0-1.125.394-2.075 1.182-2.85.787-.775 1.768-1.1625 2.943-1.1625.675 0 1.3065.156 1.8945.468.587.313 1.0805.7445 1.4805 1.2945.4-.55.894-.9815 1.482-1.2945.587-.312 1.218-.468 1.893-.468 1.175 0 2.156.3875 2.943 1.1625.788.775 1.182 1.725 1.182 2.85 0 .625-.125 1.2125-.375 1.7625s-.6625 1.1375-1.2375 1.7625c-.575.625-1.3435 1.35-2.3055 2.175-.963.825-2.157 1.8375-3.582 3.0375Z" fill="#5BBCE9"/></svg>