<svg fill="none" xmlns="http://www.w3.org/2000/svg" viewBox="0 0 36 36"><path d="M6 31.5V12c0-1.1935.47411-2.33807 1.31802-3.18198C8.16193 7.97411 9.30653 7.5 10.5 7.5h15c1.1935 0 2.3381.47411 3.182 1.31802C29.5259 9.66193 30 10.8065 30 12v9c0 1.1935-.4741 2.3381-1.318 3.182-.8439.8439-1.9885 1.318-3.182 1.318H12l-6 6Z" stroke="#5BBCE9" stroke-width="2" stroke-linecap="round" stroke-linejoin="round"/><path d="M15 21v-6c0-.7956.3161-1.5587.8787-2.1213C16.4413 12.3161 17.2044 12 18 12c.7956 0 1.5587.3161 2.1213.8787C20.6839 13.4413 21 14.2044 21 15v6m0-3h-6" stroke="#5BBCE9" stroke-width="2" stroke-linecap="round" stroke-linejoin="round"/></svg>