<svg fill="none" xmlns="http://www.w3.org/2000/svg" viewBox="0 0 36 36"><path d="M18 17.25c-.9946 0-1.9484-.3951-2.6517-1.0983-.7032-.7033-1.0983-1.6571-1.0983-2.6517 0-.9946.3951-1.9484 1.0983-2.6517C16.0516 10.1451 17.0054 9.75 18 9.75c.9946 0 1.9484.3951 2.6517 1.0983.7032.7033 1.0983 1.6571 1.0983 2.6517 0 .4925-.097.9801-.2855 1.4351-.1884.4549-.4646.8683-.8128 1.2166-.3483.3482-.7617.6244-1.2166.8128-.455.1885-.9426.2855-1.4351.2855ZM18 3c-2.7848 0-5.4555 1.10625-7.4246 3.07538C8.60625 8.04451 7.5 10.7152 7.5 13.5 7.5 21.375 18 33 18 33s10.5-11.625 10.5-19.5c0-2.7848-1.1062-5.45549-3.0754-7.42462C23.4555 4.10625 20.7848 3 18 3Z" fill="#5BBCE9"/></svg>