<svg xmlns="http://www.w3.org/2000/svg" viewBox="0 0 121.1 118" style="enable-background:new 0 0 121.1 118" xml:space="preserve"><linearGradient id="a" gradientUnits="userSpaceOnUse" x1="60.5744" y1="-.4536" x2="60.5744" y2="115.7917"><stop offset="0" style="stop-color:#5ebceb"/><stop offset="1" style="stop-color:#8c1e1b"/></linearGradient><path style="fill:url(#a)" d="M95.2 1.3c-.4-1-1.6-1.5-2.6-1.1-1 .4-1.5 1.6-1.1 2.6l5.8 14.9c0 .1.1.1.1.1l-4.3 4.3-5.2-14c-.4-1-1.5-1.6-2.6-1.2-1 .4-1.6 1.5-1.2 2.6L89.9 25c0 .1.1.1.1.2l-10.1 10c-8.5-7.8-19.8-12.6-32.2-12.6C21.4 22.6 0 44 0 70.3 0 96.6 21.4 118 47.7 118c26.3 0 47.7-21.4 47.7-47.7 0-12.4-4.8-23.8-12.6-32.2l9-9c.3.4.8.8 1.4.8L112 32h.2c1 0 1.9-.8 2-1.8.1-1.1-.7-2.1-1.8-2.2l-17.6-1.9 5.2-5.2c.1 0 .2 0 .3.1l18.8 2.1h.2c1 0 1.9-.8 2-1.8.1-1.1-.7-2.1-1.8-2.2l-15.9-1.7 9.6-9.6c.8-.8.8-2 0-2.8-.8-.8-2-.8-2.8 0l-9.9 9.9-5.3-13.6zm-3.9 69c0 24.1-19.6 43.7-43.7 43.7C23.6 114 4 94.4 4 70.3s19.6-43.7 43.7-43.7c11.3 0 21.7 4.3 29.4 11.4l-9.4 9.4c-5.3-4.7-12.3-7.5-20-7.5-16.7 0-30.3 13.6-30.3 30.3s13.6 30.3 30.3 30.3C64.4 100.7 78 87 78 70.3c0-7.6-2.9-14.6-7.5-20l9.4-9.4C87 48.7 91.3 59 91.3 70.3zm-45 1.4c.4.4.9.6 1.4.6s1-.2 1.4-.6l6.2-6.2c.9 1.4 1.4 3 1.4 4.7 0 4.9-4 8.9-9 8.9-4.9 0-8.9-4-8.9-8.9s4-8.9 8.9-8.9c1.7 0 3.4.5 4.7 1.4l-6.2 6.2c-.7.8-.7 2 .1 2.8zm9-11.8c-2.1-1.6-4.8-2.5-7.6-2.5-7.1 0-12.9 5.8-12.9 12.9 0 7.1 5.8 12.9 12.9 12.9 7.1 0 13-5.8 13-12.9 0-2.8-.9-5.5-2.5-7.6l9.5-9.5c4 4.6 6.4 10.6 6.4 17.1 0 14.5-11.8 26.3-26.3 26.3S21.5 84.8 21.5 70.3C21.3 55.8 33.1 44 47.7 44c6.5 0 12.5 2.4 17.1 6.4l-9.5 9.5z"/></svg>