<svg xmlns="http://www.w3.org/2000/svg" viewBox="0 0 292.7 261.7" style="enable-background:new 0 0 292.7 261.7" xml:space="preserve"><style>.st0{fill:#fff}</style><path class="st0" d="M207.5 198.5c0-.5.4-.9.9-.9s.9.4.9.9-.4.9-.9.9-.9-.4-.9-.9zm5 .9c-.5 0-.9-.4-.9-.9s.4-.9.9-.9.9.4.9.9-.4.9-.9.9zm3.1-.9c0-.5.4-.9.9-.9s.9.4.9.9-.4.9-.9.9-.9-.4-.9-.9zm4.3 5.5h2.2c1.2.1 2.4.6 3.3 1.1-.2-1.2-.2-2.2-.2-2.5v-4.7c.4 0 .9.1 1.3.2v4.3s0 2.3.7 3.9l1.1 2.6-2.1-1.9s-2.1-1.8-4-1.9h-6.9c-1 0-1.8-.4-2.4-1.1h5.4c.6.2 1.1.1 1.6 0z"/><path class="st0" d="M201.6 205.4c.9-2.4 1-5.8 1-5.8V192c0-2.3 1.9-4.2 4.2-4.2h1.4v1.4h-1.4c-1.6 0-2.9 1.3-2.9 2.9v7.7c0 .4-.1 2.3-.5 4.2 1.3-.8 3.1-1.8 5.1-1.9h9.7c1.6 0 2.9-1.3 2.9-2.9V198h1.4v1.2c0 2.3-1.9 4.2-4.2 4.2h-9.6c-2.9.2-5.9 2.8-5.9 2.8l-2.1 1.9.9-2.7z"/><path class="st0" d="M214 179.1h13.3c2.7 0 4.8 2.2 4.8 4.8v8.8s0 4 1.1 6.8l1.1 2.7-2.1-2s-3.5-3.1-6.9-3.3H214c-2.7 0-4.8-2.2-4.8-4.8V184c-.1-2.7 2.1-4.9 4.8-4.9zm-3.5 13.1c0 1.9 1.6 3.5 3.5 3.5h11.3c2.3.1 4.6 1.4 6.1 2.4-.5-2.3-.6-4.6-.6-5.1v-9c0-1.9-1.6-3.5-3.5-3.5H214c-1.9 0-3.5 1.6-3.5 3.5v8.2z"/><path class="st0" d="M225.2 189.9c.6 0 1.1.5 1.1 1.1 0 .6-.5 1.1-1.1 1.1-.6 0-1.1-.5-1.1-1.1 0-.6.5-1.1 1.1-1.1zm-4.7 0c.6 0 1.1.5 1.1 1.1 0 .6-.5 1.1-1.1 1.1-.6 0-1.1-.5-1.1-1.1 0-.6.5-1.1 1.1-1.1zm-4.7 0c.6 0 1.1.5 1.1 1.1 0 .6-.5 1.1-1.1 1.1-.6 0-1.1-.5-1.1-1.1 0-.6.5-1.1 1.1-1.1zm-198 38.9c0-.4.3-.8.8-.8.4 0 .8.3.8.8s-.3.8-.8.8c-.4-.1-.8-.4-.8-.8zm4.1.7c-.4 0-.8-.3-.8-.8s.3-.8.8-.8c.4 0 .8.3.8.8s-.4.8-.8.8zm2.5-.7c0-.4.3-.8.8-.8s.8.3.8.8-.3.8-.8.8-.8-.4-.8-.8zm3.5 4.4h1.8c1 .1 1.9.5 2.7.9-.2-.9-.2-1.8-.2-2v-3.8c.4 0 .7.1 1.1.2v3.5s0 1.9.5 3.2l.9 2.1-1.7-1.5s-1.7-1.5-3.3-1.5h-5.6c-.8 0-1.5-.3-1.9-.9h4.4c.5 0 .9-.1 1.3-.2z"/><path class="st0" d="M13.1 234.3c.8-1.9.8-4.7.8-4.7v-6.1c0-1.9 1.5-3.4 3.4-3.4h1.1v1.1h-1.1c-1.3 0-2.3 1-2.3 2.3v6.2c0 .3 0 1.8-.4 3.4 1-.7 2.6-1.5 4.1-1.5h7.9c1.3 0 2.3-1 2.3-2.3v-1H30v1c0 1.9-1.5 3.4-3.4 3.4h-7.8c-2.4.1-4.7 2.3-4.8 2.3l-1.7 1.6.8-2.3z"/><path class="st0" d="M23.1 213.1h10.8c2.2 0 3.9 1.8 3.9 3.9v7.1s0 3.2.9 5.5l.9 2.2-1.7-1.6s-2.8-2.5-5.6-2.7h-9.2c-2.2 0-3.9-1.8-3.9-3.9V217c0-2.2 1.7-3.9 3.9-3.9zm-2.8 10.5c0 1.5 1.3 2.8 2.8 2.8h9.2c1.9.1 3.7 1.1 4.9 1.9-.4-1.9-.5-3.8-.5-4.2V217c0-1.5-1.3-2.8-2.8-2.8H23.1c-1.5 0-2.8 1.3-2.8 2.8v6.6z"/><circle class="st0" cx="32.2" cy="222.6" r=".9"/><circle class="st0" cx="28.4" cy="222.6" r=".9"/><circle class="st0" cx="24.6" cy="222.6" r=".9"/><path class="st0" d="M185.2 133.1c0-.4.3-.7.7-.7.4 0 .7.3.7.7 0 .4-.3.7-.7.7-.3 0-.7-.3-.7-.7zm3.9.7c-.4 0-.7-.3-.7-.7 0-.4.3-.7.7-.7.4 0 .7.3.7.7.1.4-.3.7-.7.7zm2.5-.7c0-.4.3-.7.7-.7.4 0 .7.3.7.7 0 .4-.3.7-.7.7-.4 0-.7-.3-.7-.7zm3.4 4.3h1.7c1 .1 1.9.5 2.6.9-.2-.9-.2-1.7-.2-1.9v-3.6c.3 0 .7.1 1 .2v3.4s0 1.8.5 3.1l.8 2.1-1.7-1.5s-1.6-1.4-3.2-1.5h-5.4c-.8 0-1.4-.3-1.9-.8h4.3c.6-.2 1.1-.3 1.5-.4z"/><path class="st0" d="M180.7 138.5c.7-1.9.7-4.5.7-4.6V128c0-1.8 1.5-3.3 3.3-3.3h1.1v1.1h-1.1c-1.2 0-2.3 1-2.3 2.3v6c0 .3 0 1.8-.4 3.3 1-.7 2.5-1.4 4-1.5h7.6c1.2 0 2.3-1 2.3-2.3v-.9h1.1v.9c0 1.8-1.5 3.3-3.3 3.3h-7.6c-2.3.1-4.6 2.2-4.6 2.2l-1.7 1.5.9-2.1z"/><path class="st0" d="M190.3 117.9h10.5c2.1 0 3.8 1.7 3.8 3.8v6.9s0 3.1.9 5.3l.8 2.1-1.7-1.5s-2.7-2.5-5.4-2.6h-8.9c-2.1 0-3.8-1.7-3.8-3.8v-6.5c0-2 1.7-3.7 3.8-3.7zm-2.7 10.2c0 1.5 1.2 2.7 2.7 2.7h8.9c1.8.1 3.6 1.1 4.8 1.8-.4-1.8-.5-3.6-.5-4v-7c0-1.5-1.2-2.7-2.7-2.7h-10.5c-1.5 0-2.7 1.2-2.7 2.7v6.5z"/><path class="st0" d="M199.1 126.3c.5 0 .8.4.8.9s-.4.9-.8.9c-.5 0-.9-.4-.9-.9.1-.5.5-.9.9-.9zm-3.6 0c.5 0 .9.4.9.9s-.4.9-.9.9-.9-.4-.9-.9.4-.9.9-.9zm-3.7 0c.5 0 .9.4.9.9s-.4.9-.9.9-.9-.4-.9-.9.4-.9.9-.9zM39.2 35.6c0-.7.5-1.2 1.2-1.2s1.2.5 1.2 1.2-.5 1.2-1.2 1.2-1.2-.5-1.2-1.2zm6.4 1.2c-.7 0-1.2-.5-1.2-1.2s.5-1.2 1.2-1.2 1.2.5 1.2 1.2-.5 1.2-1.2 1.2z"/><circle class="st0" cx="50.8" cy="35.6" r="1.2"/><path class="st0" d="M55.3 42.6h2.9c1.6.1 3.1.8 4.3 1.4-.3-1.5-.3-2.8-.3-3.2v-6c.6 0 1.2.1 1.7.3v5.7s0 3 .9 5.1l1.4 3.4-2.8-2.4s-2.7-2.3-5.2-2.5h-8.9c-1.2 0-2.3-.5-3.1-1.4h7c.7 0 1.4-.1 2.1-.4z"/><path class="st0" d="M31.6 44.5c1.2-3.1 1.2-7.5 1.2-7.5v-9.8c0-3 2.5-5.5 5.5-5.5h1.8v1.8h-1.8c-2.1 0-3.7 1.7-3.7 3.7V37c0 .6-.1 2.9-.6 5.4 1.7-1.1 4.1-2.3 6.6-2.5h12.5c2 0 3.7-1.7 3.7-3.7v-1.5h1.8v1.5c0 3-2.5 5.5-5.5 5.5H40.7c-3.8.2-7.6 3.6-7.6 3.7L30.3 48l1.3-3.5z"/><path class="st0" d="M47.6 10.5h17.3c3.4 0 6.2 2.8 6.2 6.2v11.4c0 .1 0 5.2 1.4 8.8l1.4 3.5-2.8-2.5s-4.5-4.1-8.9-4.3H47.6c-3.4 0-6.2-2.8-6.2-6.2V16.8c-.1-3.5 2.7-6.3 6.2-6.3zm-4.5 16.9c0 2.5 2 4.5 4.5 4.5h14.7c3 .2 5.9 1.7 7.9 3-.7-3-.8-6-.8-6.6V16.8c0-2.5-2-4.5-4.5-4.5H47.6c-2.5 0-4.5 2-4.5 4.5v10.6z"/><path class="st0" d="M62.1 24.4c.8 0 1.4.6 1.4 1.4 0 .8-.6 1.4-1.4 1.4s-1.4-.6-1.4-1.4c0-.7.6-1.4 1.4-1.4zm-6.1 0c.8 0 1.4.6 1.4 1.4 0 .8-.6 1.4-1.4 1.4-.8 0-1.4-.6-1.4-1.4 0-.7.6-1.4 1.4-1.4zm-6.1 0c.8 0 1.4.6 1.4 1.4 0 .8-.6 1.4-1.4 1.4-.8 0-1.4-.6-1.4-1.4 0-.7.6-1.4 1.4-1.4zm43.1 23h13c-.5.8-.8 1.8-.8 2.8v5.2h-9.5c-4.3.2-8.6 4.1-8.6 4.1 1.4-3.5 1.4-8.2 1.4-8.2V41c0-2.7 2.2-4.8 4.8-4.8h15.5c2.7 0 4.8 2.2 4.8 4.8v3.7h-3c-1.4 0-2.7.5-3.6 1.4H93v1.3zm0 3.9h7.5V50H93v1.3zm14.9-7.8v-1.2H93v1.2h14.9z"/><path class="st0" d="M107.4 47.4c.1-.2.3-.3.4-.4v.4h-.4z"/><path class="st0" d="M107.4 47.4h.4V47c.7-.6 1.7-1 2.7-1h10.9c2.4 0 4.3 1.9 4.3 4.3v7.2s0 3.2.9 5.5l1.4 3.5-2.8-2.5s-2.8-2.5-5.4-2.6h-9.2c-2.4 0-4.3-1.9-4.3-4.3v-6.7c.1-1.3.5-2.3 1.1-3zm.7 9.5c0 1.4 1.1 2.5 2.5 2.5h9.3c1.7.1 3.3.8 4.5 1.6-.3-1.6-.3-3.1-.3-3.5v-7.2c0-1.4-1.1-2.5-2.5-2.5h-10.9c-1.4 0-2.5 1.1-2.5 2.5v6.6z"/><path class="st0" d="M110.3 50.4h11.1v.9h-11.1zm0 2.8h11.1v.9h-11.1zm5.6 2.9h5.6v.9h-5.6zm85.6-28.8h33.2c-1.3 2-2 4.4-2 6.9V47h-24.1c-11 .6-21.8 9.9-21.8 9.9 3.4-8.5 3.4-20 3.4-20 .1.2 0-.9 0-1.7V11.8c0-6.5 5.5-11.8 12.3-11.8H242c6.8 0 12.3 5.3 12.3 11.8v9.1h-7.7c-3.6 0-6.8 1.3-9.3 3.4h-35.7v3zm0 9.4h19v-2.9h-19v2.9zm37.9-18.9v-2.9h-38v2.9h38z"/><path class="st0" d="m238.3 27.3 1.1-1.1v1.1h-1.1z"/><path class="st0" d="M238.3 27.3h1.1v-1.1c1.9-1.5 4.3-2.5 7-2.5h27.8c6 0 10.9 4.7 10.9 10.4v17.6c0 .1 0 7.8 2.3 13.3l3.5 8.5-7-6.1c-.1-.1-7.1-6.1-13.8-6.4h-23.5c-6 0-10.9-4.7-10.9-10.4V34.2c-.2-2.7.9-5.1 2.6-6.9zm1.7 23.3c0 3.4 2.9 6.1 6.4 6.1H270c4.2.2 8.3 2 11.4 3.8-.8-4-.9-7.6-.9-8.6V34.2c0-3.4-2.9-6.1-6.4-6.1h-27.8c-3.5 0-6.4 2.8-6.4 6.1v16.4z"/><path class="st0" d="M245.7 34.6h28.4v2.2h-28.4zm0 7h28.4v2.2h-28.4zm14.1 7.1H274v2.2h-14.2zM49.6 150.6h6.7c-.3.4-.4.9-.4 1.5v2.7H51c-2.2.1-4.4 2.1-4.4 2.1.7-1.8.7-4.2.7-4.2v-5.2c0-1.4 1.1-2.5 2.5-2.5h8c1.4 0 2.5 1.1 2.5 2.5v1.9h-1.6c-.7 0-1.4.3-1.9.7h-7.2v.5zm0 2h3.8v-.6h-3.8v.6zm7.7-4v-.6h-7.7v.6h7.7z"/><path class="st0" d="M57.1 150.6c.1-.1.1-.2.2-.2v.2h-.2z"/><path class="st0" d="M57.1 150.6h.2v-.2c.4-.3.9-.5 1.4-.5h5.6c1.2 0 2.2 1 2.2 2.2v3.7s0 1.7.5 2.8l.7 1.8-1.4-1.3s-1.4-1.3-2.8-1.4h-4.8c-1.2 0-2.2-1-2.2-2.2V152c0-.5.2-1 .6-1.4zm.3 4.9c0 .7.6 1.3 1.3 1.3h4.8c.9 0 1.7.4 2.3.8-.2-.8-.2-1.6-.2-1.8V152c0-.7-.6-1.3-1.3-1.3h-5.6c-.7 0-1.3.6-1.3 1.3v3.5z"/><path class="st0" d="M58.6 152.1h5.7v.5h-5.7zm0 1.5h5.7v.5h-5.7zm2.8 1.5h2.9v.5h-2.9zm159.9-1.2h9.1c-.4.6-.6 1.3-.6 2v3.6h-6.6c-3 .2-6 2.8-6 2.8.9-2.4.9-5.7.9-5.7v-7.2c0-1.9 1.5-3.4 3.4-3.4h10.8c1.9 0 3.4 1.5 3.4 3.4v2.6h-2.1c-1 0-1.9.4-2.5 1h-9.8v.9zm0 2.7h5.2v-.8h-5.2v.8zm10.4-5.4v-.8h-10.4v.8h10.4z"/><path class="st0" d="m231.4 153.9.3-.3v.3h-.3z"/><path class="st0" d="M231.4 153.9h.3v-.3c.5-.4 1.2-.7 1.9-.7h7.6c1.6 0 3 1.3 3 3v5s0 2.2.6 3.8l1 2.4-1.9-1.8s-1.9-1.7-3.8-1.8h-6.5c-1.6 0-3-1.3-3-3v-4.7c0-.7.3-1.4.8-1.9zm.5 6.7c0 1 .8 1.8 1.8 1.8h6.5c1.2.1 2.3.6 3.1 1.1-.2-1.1-.2-2.2-.2-2.5v-5.1c0-1-.8-1.8-1.8-1.8h-7.6c-1 0-1.8.8-1.8 1.8v4.7z"/><path class="st0" d="M233.4 156h7.8v.6h-7.8zm0 2h7.8v.6h-7.8zm3.9 2h3.9v.6h-3.9zm-67.4-69.9c1.7 0 3.3.6 4.4 1.5 1 .9 1.5 2 1.5 3.1 0 1.2-.6 2.3-1.6 3.2 0 .7.1 1.9.4 2.8l.5 1.4-1-1s-1.3-1.3-2.9-1.8c-.4.1-.9.1-1.3.1-.9 0-1.7-.1-2.5-.4-2.1-.8-3.5-2.4-3.5-4.2 0-2.6 2.7-4.7 6-4.7zm0 8.6c.4 0 .9 0 1.3-.1h.2c1 .3 1.8.8 2.4 1.3-.1-.8-.2-1.5-.2-2.1v-.2l.1-.1c.9-.7 1.5-1.7 1.5-2.7 0-1-.5-1.9-1.3-2.6-1-.9-2.5-1.4-4-1.4-2.9 0-5.3 1.8-5.3 4 0 1.5 1.2 2.9 3 3.6.7.2 1.5.3 2.3.3z"/><path class="st0" d="M161.5 97.3c0-.7.4-1.4 1-1.9.3-.3.6-.5 1-.6 0 .7.2 1.4.6 2.1h-.7v.3h.9c.1.2.3.4.5.6h-1.4v.2h1.6c.6.6 1.4 1.1 2.3 1.4.1 0 .2.1.4.1-.2.1-.5.3-.8.4-.5.2-1 .3-1.6.3-.3 0-.6 0-.9-.1-1.1.3-2.1 1.3-2.1 1.3.2-.7.3-1.6.3-2.1-.7-.5-1.1-1.2-1.1-2zm1.8 1.6h1.7v-.3h-1.7v.3zm4.5-5.3h4.6v.4h-4.6zm0 1.2h4.6v.4h-4.6zm2.3 1.2h2.3v.4h-2.3zm-26.9 14.5c8.6 0 16.9 2.8 22.7 7.8 5.1 4.4 7.9 10 7.9 16 0 6.1-2.9 11.8-8.2 16.2.1 3.6.5 9.5 2.1 14.4l2.4 7-5.2-5.3c-.1-.1-6.9-6.9-14.8-9.1-2.2.4-4.6.6-6.9.6-4.4 0-8.7-.7-12.7-2.1-10.9-3.9-17.9-12.3-17.9-21.6-.1-13.2 13.7-23.9 30.6-23.9zm0 44.1c2.2 0 4.5-.2 6.6-.6l.4-.1.4.1c4.9 1.3 9.4 4.2 12.5 6.5-.7-3.9-.9-7.8-.9-10.9v-.9l.7-.5c4.9-3.8 7.5-8.8 7.5-14 0-4.9-2.4-9.6-6.7-13.3-5.2-4.4-12.6-7-20.4-7-15 0-27.1 9.1-27.1 20.3 0 7.8 6.1 15 15.6 18.4 3.4 1.4 7.3 2 11.4 2z"/><path class="st0" d="M100 147.2c0-3.8 1.9-7.2 4.9-9.8 1.5-1.3 3.3-2.4 5.4-3.2v.2c0 3.8 1 7.4 2.9 10.7h-3.5v1.4h4.4c.7 1.1 1.6 2.2 2.5 3.2h-6.9v1.4h8.3c3.1 3 7.1 5.4 11.7 7.1l1.8.6c-1.2.7-2.5 1.4-4 1.9-2.5.9-5.2 1.4-8.2 1.4-1.6 0-3.2-.2-4.7-.4-5.8 1.6-10.7 6.5-10.7 6.5 1.2-3.6 1.5-8 1.5-10.6-3.3-2.8-5.4-6.4-5.4-10.4zm9.6 8.5h8.9v-1.4h-8.9v1.4zm22.6-27.2h23.7v1.9h-23.7zm0 6.1h23.7v1.9h-23.7zm11.9 6.2H156v1.9h-11.9zm-.9 45.1c3.2 0 6.3 1.1 8.5 2.9 1.9 1.6 3 3.8 3 6 0 2.3-1.1 4.4-3.1 6.1 0 1.3.2 3.6.8 5.4l.9 2.6-2-2s-2.6-2.6-5.5-3.4c-.8.1-1.7.2-2.6.2-1.7 0-3.3-.3-4.8-.8-4.1-1.4-6.7-4.6-6.7-8.1.1-4.9 5.2-8.9 11.5-8.9zm0 16.5c.8 0 1.7-.1 2.5-.2h.2c1.9.5 3.5 1.6 4.7 2.4-.3-1.5-.3-2.9-.4-4.1v-.3l.3-.2c1.8-1.4 2.8-3.3 2.8-5.2 0-1.8-.9-3.6-2.5-5-1.9-1.7-4.7-2.6-7.6-2.6-5.6 0-10.2 3.4-10.2 7.6 0 2.9 2.3 5.6 5.8 6.9 1.5.5 2.9.7 4.4.7z"/><path class="st0" d="M127.1 199.7c0-1.4.7-2.7 1.8-3.7.6-.5 1.2-.9 2-1.2v.1c0 1.4.4 2.8 1.1 4h-1.3v.5h1.7l.9 1.2h-2.6v.5h3.1c1.2 1.1 2.7 2 4.4 2.6.2.1.5.2.7.2-.5.3-.9.5-1.5.7-.9.3-2 .5-3.1.5-.6 0-1.2-.1-1.7-.2-2.2.6-4 2.4-4 2.4.5-1.3.5-3 .6-4-1.3-.8-2.1-2.1-2.1-3.6zm3.6 3.1h3.3v-.5h-3.3v.5zm8.5-10.2h8.9v.7h-8.9zm0 2.4h8.9v.7h-8.9zm4.4 2.3h4.4v.7h-4.4zM158.8.2c1.4 0 2.8.5 3.8 1.3.8.7 1.3 1.7 1.3 2.6 0 1-.5 2-1.4 2.7 0 .6.1 1.6.3 2.4l.4 1.2-.9-.9s-1.1-1.1-2.5-1.5c-.4.1-.8.1-1.1.1-.7 0-1.4-.1-2.1-.4-1.8-.6-3-2-3-3.6.1-2.1 2.4-3.9 5.2-3.9zm0 7.3c.4 0 .7 0 1.1-.1h.2c.8.2 1.6.7 2.1 1.1-.1-.6-.2-1.3-.2-1.8v-.1l.1-.1c.8-.6 1.2-1.5 1.2-2.3 0-.8-.4-1.6-1.1-2.2-.9-.7-2.1-1.2-3.4-1.2-2.5 0-4.5 1.5-4.5 3.4 0 1.3 1 2.5 2.6 3 .5.2 1.2.3 1.9.3z"/><path class="st0" d="M151.6 6.3c0-.6.3-1.2.8-1.6.2-.2.6-.4.9-.5 0 .6.2 1.2.5 1.8h-.6v.2h.7c.1.2.3.4.4.5h-1.1v.2h1.4c.5.5 1.2.9 1.9 1.2.1 0 .2.1.3.1-.2.1-.4.2-.7.3-.4.1-.9.2-1.4.2-.3 0-.5 0-.8-.1-1 .3-1.8 1.1-1.8 1.1.2-.6.2-1.3.2-1.8-.3-.3-.7-1-.7-1.6zm1.6 1.4h1.5v-.2h-1.5v.2zm3.8-4.5h3.9v.3H157zm0 1h3.9v.3H157zm1.9 1h2v.3h-2zM23.5 101c2.7-6.9 2.8-16.6 2.8-16.7V62.7c0-6.5 5.3-11.7 11.8-11.7h32.7c6.5 0 11.8 5.3 11.8 11.7v20.2c0 6.5-5.3 11.7-11.8 11.7H43.2c-8.5.4-17 8.1-17.1 8.2l-5 4.6 2.4-6.4zm55.8-38.3c0-4.7-3.8-8.6-8.6-8.6H38c-4.7 0-8.6 3.8-8.6 8.6v21.8c0 1.2-.2 7-1.5 12.8 3.6-2.5 9.2-5.6 15.1-5.9h27.7c4.7 0 8.6-3.8 8.6-8.6V62.7z"/><path class="st0" d="M65.9 85.1H42.5v-.4c0-.1-.8-7.7 5.5-9.2h3.3l.1.1s.9.7 2.9.7 2.9-.7 2.9-.7l.1-.1h3.2c6.2 1.5 5.5 9.1 5.5 9.2l-.1.4zM54.2 73.4c-3.3 0-6-3.6-6-6.9 0-3.3 2.7-6 6-6s6 2.7 6 6-2.7 6.9-6 6.9zm26.2 101.1c-1.2-1-1.8-2.3-1.8-3.7 0-1.3.6-2.6 1.8-3.6 1.3-1.1 3.2-1.8 5.1-1.8 3.8 0 6.9 2.4 6.9 5.4 0 2.1-1.6 4-4 4.9-.9.3-1.9.5-2.9.5-.5 0-1 0-1.5-.1-1.8.5-3.3 2-3.3 2.1l-1.2 1.2.5-1.6c.3-1.1.4-2.5.4-3.3zm5.1.9c.9 0 1.8-.1 2.6-.4 2.1-.8 3.5-2.4 3.5-4.1 0-2.5-2.7-4.6-6.1-4.6-1.8 0-3.4.6-4.6 1.6-1 .8-1.5 1.9-1.5 3 0 1.2.6 2.3 1.7 3.2l.2.1v.2c0 .7-.1 1.6-.2 2.4.7-.5 1.7-1.2 2.8-1.5h.2c.4.1.9.1 1.4.1zM199.2 73.3c-3.3-2.8-5.1-6.3-5.1-10.1 0-3.7 1.8-7.2 4.9-10 3.6-3.1 8.8-4.9 14.2-4.9 10.6 0 19.1 6.7 19.1 14.9 0 5.8-4.4 11.1-11.2 13.5-2.5.9-5.2 1.3-7.9 1.3-1.4 0-2.9-.1-4.3-.4-4.9 1.4-9.2 5.7-9.2 5.7l-3.3 3.3 1.5-4.5c1-2.9 1.2-6.6 1.3-8.8zm14 2.5c2.5 0 4.9-.4 7.2-1.2 5.9-2.1 9.7-6.6 9.7-11.4 0-7-7.6-12.7-16.9-12.7-4.9 0-9.5 1.6-12.7 4.4-2.7 2.3-4.2 5.3-4.2 8.3 0 3.3 1.7 6.4 4.7 8.7l.4.3v.5c0 1.9-.2 4.3-.6 6.7 1.9-1.5 4.7-3.2 7.8-4l.2-.1h.2c1.4.4 2.8.5 4.2.5zm40.1 124.6c-1.2-1-1.8-2.3-1.8-3.7 0-1.3.6-2.6 1.8-3.6 1.3-1.1 3.2-1.8 5.1-1.8 3.8 0 6.9 2.4 6.9 5.4 0 2.1-1.6 4-4 4.9-.9.3-1.9.5-2.9.5-.5 0-1 0-1.5-.1-1.8.5-3.3 2-3.3 2.1l-1.2 1.2.5-1.6c.3-1.2.4-2.5.4-3.3zm5.1.9c.9 0 1.8-.1 2.6-.4 2.1-.8 3.5-2.4 3.5-4.1 0-2.5-2.7-4.6-6.1-4.6-1.8 0-3.4.6-4.6 1.6-1 .8-1.5 1.9-1.5 3 0 1.2.6 2.3 1.7 3.2l.2.1v.2c0 .7-.1 1.6-.2 2.4.7-.5 1.7-1.2 2.8-1.5h.2c.4.1.9.1 1.4.1zM168.5 13.8c-1.8-1.5-2.8-3.4-2.8-5.5 0-2 1-3.9 2.7-5.4 2-1.7 4.8-2.7 7.8-2.7 5.8 0 10.5 3.6 10.5 8.1 0 3.2-2.4 6.1-6.2 7.4-1.4.5-2.9.7-4.4.7-.8 0-1.6-.1-2.4-.2-2.7.8-5.1 3.1-5.1 3.1l-1.8 1.8.8-2.4c.7-1.7.9-3.7.9-4.9zm7.7 1.4c1.4 0 2.7-.2 4-.7 3.2-1.1 5.3-3.6 5.3-6.2 0-3.8-4.2-6.9-9.3-6.9-2.7 0-5.2.9-7 2.4-1.5 1.3-2.3 2.9-2.3 4.5 0 1.8.9 3.5 2.6 4.8l.2.2v.3c0 1-.1 2.3-.3 3.7 1.1-.8 2.6-1.8 4.3-2.2h.2c.8 0 1.6.1 2.3.1zm-96.1-4-1-.9s-1.6-1.5-3.2-1.5h-5.2c-1.2 0-2.2-1-2.2-2.2V2.7c0-1.2 1-2.2 2.2-2.2h6.2c1.2 0 2.2 1 2.2 2.2v4s0 1.9.5 3.2l.5 1.3zM69 6.5c0 .9.7 1.6 1.6 1.6h5.3c1.1.1 2.2.6 2.8 1.1-.2-1.1-.3-2.2-.3-2.4V2.7c0-.9-.7-1.6-1.6-1.6h-6.2c-.9 0-1.6.7-1.6 1.6v3.8z"/><path class="st0" d="M70.6 2.9h6v.5h-6zm0 1.6h6V5h-6zm3 1.5h3v.5h-3zm-6.5 137c1.7-4.4 1.7-10.5 1.7-10.5v-13.6c0-4.1 3.3-7.5 7.5-7.5h20.6c4.1 0 7.5 3.3 7.5 7.5v12.7c0 4.1-3.3 7.5-7.5 7.5H79.5c-5.3.3-10.7 5.1-10.7 5.1l-3.3 3 1.6-4.2zm35.1-24.1c0-3-2.4-5.4-5.4-5.4H76.3c-3 0-5.4 2.4-5.4 5.4v13.8c0 .8-.1 4.4-.9 8 2.3-1.6 5.8-3.5 9.4-3.6h17.5c3 0 5.4-2.4 5.4-5.4v-12.8z"/><path class="st0" d="M77 119.5h19.9v1.6H77zm0 5.1h19.9v1.6H77zm0 5.2h9.9v1.6H77zm171.5 13.9c.9-2.4 1-5.8 1-5.8v-7.6c0-2.3 1.9-4.1 4.1-4.1H265c2.3 0 4.1 1.9 4.1 4.1v7.1c0 2.3-1.9 4.1-4.1 4.1h-9.7c-3 .2-5.9 2.8-6 2.9l-1.8 1.7 1-2.4zm19.5-13.4c0-1.6-1.3-3-3-3h-11.4c-1.6 0-3 1.3-3 3v7.7c0 .4-.1 2.4-.5 4.4 1.3-.9 3.2-1.9 5.2-2h9.7c1.6 0 3-1.3 3-3v-7.1z"/><path class="st0" d="M254 130.7h11v.9h-11zm0 2.8h11v.9h-11zm0 2.9h5.5v.9H254zm28.1 30.6h1.4l.1.1s.3.2.8.2c.6 0 .8-.2.8-.2l.1-.1h1.3c2 .5 2.3 2.6 2.2 3.7v.4h-9v-.4c0-1.1.3-3.3 2.3-3.7zm-1.6 3.4h7.8c0-.6-.1-2.4-1.7-2.8h-1c-.2.1-.6.3-1.2.3-.7 0-1.1-.2-1.2-.3h-1c-1.6.4-1.7 2.3-1.7 2.8zm3.9-9.5c1.4 0 2.5 1.1 2.5 2.5 0 1.3-1.1 2.7-2.5 2.7s-2.5-1.4-2.5-2.7c0-1.3 1.2-2.5 2.5-2.5zm0 4.6c.9 0 1.8-1 1.8-2.1 0-1-.8-1.8-1.8-1.8s-1.8.8-1.8 1.8c0 1.2.9 2.1 1.8 2.1zm-9.3-1.2c-.8 0-1.4-.6-1.4-1.4v-2.7c0-.8.6-1.4 1.4-1.4h4.4c.8 0 1.4.6 1.4 1.4v2.9s0 1.4.4 2.3c0 0-1.2-1.1-2.4-1.2h-3.8zm4.5-3.8h-4.3v.3h4.3v-.3zm0 1.2h-4.3v.3h4.3v-.3zm0 1.1h-2.1v.3h2.1v-.3zM139.1 96.1h4.3l.4.3s.9.6 2.7.6c1.8 0 2.6-.6 2.6-.6l.4-.3h4.4c6.4 1.5 7.5 8.3 7.1 11.7l-.2 1.4H132l-.2-1.4c-.2-3.4.9-10.2 7.3-11.7zm-5 11H159c.1-1.8-.2-7.6-5.4-8.9h-3.2c-.5.4-1.8.9-3.8.9-2.1 0-3.4-.6-3.8-.9h-3.2c-5.3 1.3-5.5 7.1-5.5 8.9zm12.4-30.3c4.4 0 8 3.6 8 8 0 4.3-3.4 8.7-8 8.7s-8-4.4-8-8.7c0-4.4 3.6-8 8-8zm0 14.7c2.9 0 5.9-3 5.9-6.7 0-3.2-2.6-5.9-5.9-5.9-3.2 0-5.9 2.6-5.9 5.9.1 3.7 3 6.7 5.9 6.7zm-29.7-3.9c-2.4 0-4.4-2-4.4-4.4v-8.7c0-2.4 2-4.4 4.4-4.4h14.1c2.4 0 4.4 2 4.4 4.4v9.3s0 4.3 1.2 7.5c0 0-3.8-3.5-7.8-3.7h-11.9zm14.5-12h-13.6v1.1h13.6v-1.1zm0 3.6h-13.6v1.1h13.6v-1.1zm0 3.5h-6.8v1.1h6.8v-1.1zm149.1 32c.7 0 1.2.4 1.2 1 0 .5-.6 1-1.2 1s-1.2-.4-1.2-1c0-.5.5-1 1.2-1zm-.9 2.5c.4 0 .6.2.6.5s-.3.5-.6.5c-.4 0-.6-.2-.6-.5-.1-.3.2-.5.6-.5zm10.9-2.4h-8.1c-1.3 0-2.3-1-2.3-2.3v-4.8c0-1.3 1-2.3 2.3-2.3h8.1c1.3 0 2.3 1 2.3 2.3v4.8c0 1.2-1 2.3-2.3 2.3zm-6.7-5.3c-.4 0-.8.4-.8.8s.4.8.8.8.8-.4.8-.8c0-.5-.4-.8-.8-.8zm.8 1.8h-.4s-.1.1-.4.1c-.3 0-.4-.1-.4-.1h-.4c-.8.2-.7 1.2-.7 1.2v.1h3.1v-.1s.1-1-.8-1.2zm3.6-3.8c-.7 0-1.3.6-1.3 1.3 0 .7.6 1.4 1.3 1.4.7 0 1.3-.7 1.3-1.4-.1-.7-.6-1.3-1.3-1.3zm1.3 3h-.7s-.2.1-.6.1c-.4 0-.6-.1-.6-.1h-.7c-1.3.3-1.2 2-1.2 2v.1h5v-.1s.1-1.7-1.2-2zM131.6 8.9c.7 0 1.2.4 1.2.9s-.5 1-1.2 1-1.2-.4-1.2-1c0-.4.5-.9 1.2-.9zm-.9 2.4c.3 0 .6.2.6.5s-.3.5-.6.5-.6-.2-.6-.5.3-.5.6-.5zM141.1 9h-7.7c-1.2 0-2.2-1-2.2-2.2V2.2c0-1.2 1-2.2 2.2-2.2h7.7c1.2 0 2.2 1 2.2 2.2v4.5c0 1.3-1 2.3-2.2 2.3zm-6.4-5.1c-.4 0-.8.3-.8.8 0 .4.3.8.8.8.4 0 .8-.4.8-.8s-.3-.8-.8-.8zm.8 1.8h-.4s-.1.1-.4.1c-.2 0-.4-.1-.4-.1h-.4c-.8.2-.7 1.2-.7 1.2V7h3v-.1s.1-1-.7-1.2zm3.4-3.6c-.7 0-1.2.6-1.2 1.2 0 .7.6 1.3 1.2 1.3.7 0 1.2-.6 1.2-1.3 0-.7-.5-1.2-1.2-1.2zm1.3 2.8h-.7s-.2.1-.6.1c-.4 0-.6-.1-.6-.1h-.6c-1.3.3-1.1 1.9-1.1 1.9v.1h4.8v-.1c-.1 0 .1-1.6-1.2-1.9zm-66 158.6c1.3 0 2.4.9 2.4 1.9 0 1.1-1.1 1.9-2.4 1.9-1.3 0-2.4-.9-2.4-1.9.1-1 1.1-1.9 2.4-1.9zm-1.8 4.8c.7 0 1.2.4 1.2 1 0 .5-.6 1-1.2 1-.7 0-1.2-.4-1.2-1s.6-1 1.2-1zm21-4.7H77.9c-2.5 0-4.4-2-4.4-4.4V150c0-2.5 2-4.4 4.4-4.4h15.4c2.5 0 4.4 2 4.4 4.4v9.1c.1 2.5-1.9 4.5-4.3 4.5zm-12.9-10.2c-.8 0-1.5.7-1.5 1.5 0 .9.7 1.6 1.5 1.6s1.5-.8 1.5-1.6c.1-.8-.6-1.5-1.5-1.5zm1.6 3.6h-.8s-.2.2-.7.2-.7-.2-.7-.2h-.8c-1.6.4-1.4 2.3-1.4 2.3v.1h5.9v-.1c-.1 0 .1-1.9-1.5-2.3zm6.8-7.3c-1.4 0-2.5 1.1-2.5 2.5s1.1 2.7 2.5 2.7 2.5-1.3 2.5-2.7c0-1.4-1.2-2.5-2.5-2.5zm2.5 5.8H90s-.4.3-1.2.3c-.8 0-1.2-.3-1.2-.3h-1.5c-2.6.6-2.3 3.8-2.3 3.8v.2h9.6v-.2c.3-.1.6-3.2-2-3.8zM8.7 246.7c.6 0 1.2.4 1.2.9s-.5.9-1.2.9-1.2-.4-1.2-.9.5-.9 1.2-.9zm-.9 2.4c.3 0 .6.2.6.5s-.3.5-.6.5-.6-.2-.6-.5.2-.5.6-.5zm10.4-2.3h-7.7c-1.2 0-2.2-1-2.2-2.2V240c0-1.2 1-2.2 2.2-2.2h7.7c1.2 0 2.2 1 2.2 2.2v4.5c0 1.3-1 2.3-2.2 2.3zm-6.4-5.1c-.4 0-.8.3-.8.8 0 .4.3.8.8.8.4 0 .8-.4.8-.8 0-.5-.4-.8-.8-.8zm.8 1.8h-.4s-.1.1-.4.1c-.2 0-.4-.1-.4-.1H11c-.8.2-.7 1.2-.7 1.2v.1h3v-.1c0-.1.1-1-.7-1.2zm3.4-3.7c-.7 0-1.2.6-1.2 1.2 0 .7.6 1.3 1.2 1.3.7 0 1.2-.6 1.2-1.3 0-.6-.6-1.2-1.2-1.2zm1.2 2.9h-.7s-.2.1-.6.1c-.4 0-.6-.1-.6-.1h-.6c-1.3.3-1.1 1.9-1.1 1.9v.1h4.8v-.1s.1-1.6-1.2-1.9zM247.6 162c.4-1.1.5-2.8.5-2.8v-3.7c0-1.3 1-2.3 2.3-2.3h1.1v1h-1.1c-.7 0-1.2.5-1.2 1.2v3.8c0 .2 0 .9-.2 1.7.6-.4 1.4-.7 2.2-.7h4.8c.5 0 1-.4 1.2-.9h1c-.2 1.1-1.1 1.9-2.2 1.9h-4.7c-1.4.1-2.8 1.3-2.8 1.3l-1.6 1.5.7-2zm5.8-14c-.1.2-.1.4-.1.7-.3.4-.4.9-.4 1.4v3.7h-.3v-3.7c-.1-.8.3-1.6.8-2.1z"/><path class="st0" d="M253.7 147.4c.2-.4.6-.7.9-1 .5-1.1 1.7-1.9 3-1.9h8.8c1.8 0 3.3 1.5 3.3 3.3v5.8s0 2.6.7 4.5l.8 2.1-1.7-1.5s-1-.9-2.2-1.5c-.2.1-.3.2-.5.3-.1.2-.2.3-.3.4-.7.7-1.5.8-2.9.8h-8.3c-1.7 0-3.1-1.4-3.1-3.1v-5.5c0-1.2.6-2.2 1.5-2.7zm.3 1.6v5.4c0 1.3 1.1 2.4 2.4 2.4h10.1-.1c-.4-.1-.9-.2-1.3-.3h-8c-1.2-.2-2.2-1-2.6-2.1-.1-.2-.1-.3-.1-.5v-6c-.1.1-.1.2-.2.3-.1 0-.2.4-.2.8zm15 7.9c-.3-1.5-.3-2.9-.4-3.2v-5.9c0-1.2-1-2.2-2.2-2.2h-8.8c-.5 0-.9.1-1.2.4-.2.1-.3.2-.4.4-.1.1-.2.3-.3.4-.1.1-.1.2-.1.3 0 .1-.1.2-.1.3v5.7c0 .2 0 .4.1.5 0 .2.1.4.2.5.3.5.8.9 1.4 1.1.2 0 .3.1.5.1h7.5c.5 0 .9.1 1.3.2.1 0 .2.1.3.1.1 0 .2.1.4.1.1 0 .2.1.3.1.1 0 .2.1.3.1.1.1.2.1.3.2.3.4.7.6.9.8zm-16.1-3.2v1.8c0 1.3 1.1 2.4 2.4 2.4h8.3c1.2 0 1.8-.1 2.2-.4h-9.5c-1.7 0-3.1-1.4-3.1-3.1v-5.7c0-.2.1-.5.1-.7-.6.5-.9 1.2-.9 2v3.7h.5zm-95.8-65.1c.7-1.8.7-4.2.7-4.3v-5.7c0-1.9 1.6-3.5 3.5-3.5h1.7v1.6h-1.7c-1 0-1.9.8-1.9 1.9v5.8c0 .3 0 1.4-.2 2.6.9-.6 2.2-1.1 3.4-1.1h7.3c.8 0 1.5-.6 1.8-1.3h1.6c-.3 1.7-1.7 2.9-3.4 2.9h-7.3c-2.1.1-4.2 2-4.3 2l-2.5 2.3 1.3-3.2zm8.9-21.4c-.1.3-.2.7-.2 1-.4.6-.7 1.3-.7 2.1v5.6h-.5v-5.6c0-1.2.6-2.3 1.4-3.1z"/><path class="st0" d="M166.5 66.2c.4-.6.9-1.1 1.4-1.5.8-1.7 2.5-3 4.6-3H186c2.8 0 5 2.2 5 5v8.9s0 4 1.1 6.9l1.3 3.2-2.5-2.3s-1.5-1.3-3.4-2.3c-.2.2-.5.3-.7.4-.1.2-.3.5-.5.7-1 1.1-2.4 1.3-4.5 1.3h-12.9c-2.6 0-4.7-2.1-4.7-4.7v-8.3c-.1-1.9.9-3.4 2.3-4.3zm.4 2.4V77c0 2 1.6 3.7 3.7 3.7h14.2c.5 0 .9 0 1.2-.1h.2c-.1 0-.1 0-.2-.1-.7-.2-1.3-.4-2-.4h-11.4c-.2 0-.5 0-.7-.1-1.9-.3-3.4-1.6-4-3.3-.1-.3-.2-.5-.2-.8 0-.3-.1-.5-.1-.8v-8.5c-.1.1-.2.3-.2.4-.4.5-.5 1.1-.5 1.6zM190 80.7c-.5-2.3-.5-4.4-.5-5v-9c0-1.9-1.5-3.4-3.4-3.4h-13.5c-.7 0-1.3.2-1.9.6-.2.2-.5.4-.7.6-.2.2-.3.4-.4.6-.1.2-.2.3-.2.5-.1.2-.1.4-.1.5 0 .2-.1.4-.1.5v8.5c0 .3.1.5.1.8.1.3.2.6.3.8.5.8 1.3 1.4 2.2 1.7.2.1.5.1.7.1H184c.7 0 1.4.2 2 .4.2.1.4.1.5.2.2.1.4.1.5.2.1.1.3.1.4.2.2.1.3.1.5.2s.3.2.5.2c.6.2 1.1.5 1.6.8zm-24.8-4.8v2.7c0 2 1.6 3.7 3.7 3.7h12.9c1.8 0 2.8-.2 3.4-.7h-14.5c-2.6 0-4.7-2.1-4.7-4.7v-8.7c0-.4.1-.7.2-1-.9.8-1.4 1.9-1.4 3.1v5.6h.4zm-53.8 129.7c-.8-.2-1.4-1-1.4-1.8 0-.9.6-1.7 1.5-1.9.3-.1.6-.1.8 0 0-1.4 1.1-2.4 2.5-2.4.7 0 1.4.3 2 .8.5-.7 1.4-1.1 2.4-1.1.4 0 .7.1 1 .2 1 .4 1.5 1.1 1.7 1.7.2.5.2.9.2 1.3.7.3 1.2 1 1.2 1.8 0 1-.8 1.9-1.9 1.9-.3 0-.5-.1-.8-.2-.5.8-1.3 1.3-2.3 1.3-.7 0-1.4-.3-1.9-.8-.7.4-1.6.5-2.4.2-1.3.4-2.5 1.6-2.5 1.6l-1 1 .4-1.3c.4-.9.5-1.7.5-2.3zm2.9.2c.7.3 1.5.2 2.1-.2l.1-.1h.3l.1.1c.4.5.9.7 1.5.7.7 0 1.3-.4 1.7-1 .1-.1.1-.2.1-.3l.2-.4.3.3c.1 0 .1.1.2.1.2.1.4.1.5.1.7 0 1.2-.6 1.2-1.2s-.4-1.1-1-1.2l-.4-.1.2-.4c0-.1.1-.6-.1-1.2s-.7-1-1.4-1.3c-.2-.1-.5-.1-.8-.1-.7 0-1.7.4-2 1.2l-.2.5-.3-.4c-.3-.4-.9-.9-1.8-.9-1 0-1.8.8-1.8 1.8 0 .1 0 .3.1.4l.2.8-.7-.5c-.3-.2-.6-.2-.9-.2-.6.1-1 .6-1 1.2s.5 1.1 1.1 1.2h.3v.3c0 .4 0 1-.1 1.6.5-.4 1.3-.9 2.1-1.1h.1l.1.3zm21.4-26.8c-1.9-.5-3.3-2.3-3.3-4.4 0-2.2 1.5-4 3.6-4.5.7-.1 1.4-.1 2 0 0-3.3 2.7-5.9 6-5.9 1.7 0 3.4.7 4.7 2 1.2-1.7 3.3-2.8 5.7-2.8.9 0 1.7.2 2.5.5 2.5 1 3.7 2.8 4.2 4 .5 1.1.6 2.3.5 3.1 1.8.6 3 2.3 3 4.3 0 2.5-2 4.6-4.6 4.6-.7 0-1.3-.1-1.9-.4v.1c-1.2 1.9-3.2 3.1-5.5 3.1-1.7 0-3.3-.7-4.5-1.9-1.8 1-4 1.2-5.8.4-3.2 1-6 3.8-6.1 3.8l-2.4 2.4 1.1-3.2c.5-1.7.7-3.6.8-5.2zm6.9.6c1.6.7 3.5.6 5-.4l.2-.1h.8l.3.3c.9 1.1 2.3 1.8 3.7 1.8 1.7 0 3.2-.9 4.1-2.3l.3-.6.4-.9.8.6c.1.1.3.2.4.3.4.2.9.3 1.3.3 1.6 0 3-1.3 3-3 0-1.4-1-2.7-2.4-2.9l-1-.2.4-.9c.1-.2.2-1.5-.3-2.8-.6-1.4-1.7-2.4-3.3-3.1-.6-.2-1.2-.4-1.9-.4-1.8 0-4 .9-4.8 2.8l-.5 1.3-.8-1.1c-.7-.8-2.1-2.3-4.2-2.3-2.4 0-4.4 2-4.4 4.4 0 .3 0 .7.1 1l.5 2-1.7-1.1c-.7-.4-1.5-.6-2.2-.4-1.4.3-2.4 1.5-2.4 2.9 0 1.5 1.1 2.8 2.6 2.9l.7.1v.7c0 1.1-.1 2.5-.3 3.9 1.3-1 3.1-2.1 5.1-2.7l.3-.1h.2zM275.3 20.5l.7 2.2-1.6-1.6s-1.9-1.9-4.1-2.6c-1.3.5-2.7.4-3.9-.3-.8.8-1.9 1.3-3.1 1.3-1.5 0-2.9-.8-3.7-2.1-.4.2-.8.3-1.3.3-1.7 0-3.1-1.4-3.1-3.1 0-1.3.8-2.4 2-2.9 0-.5 0-1.3.3-2.1.3-.9 1.1-2 2.8-2.7.5-.2 1.1-.3 1.7-.3 1.6 0 3 .7 3.8 1.9.9-.9 2-1.4 3.2-1.4 2.2 0 4 1.8 4 4 .4-.1.9-.1 1.4 0 1.4.3 2.5 1.6 2.5 3s-.9 2.6-2.2 3c.1.9.2 2.3.6 3.4zm-5.1-3.2.2.1c1.4.4 2.6 1.1 3.5 1.8-.2-.9-.2-1.9-.2-2.6v-.5l.5-.1c1-.1 1.8-1 1.8-2 0-.9-.7-1.8-1.6-2-.5-.1-1.1 0-1.5.3l-1.1.7.3-1.3c.1-.2.1-.5.1-.7 0-1.6-1.3-2.9-2.9-2.9-1.5 0-2.4 1-2.9 1.5l-.6.7-.4-.8c-.6-1.3-2-1.9-3.2-1.9-.5 0-.9.1-1.3.2-1.1.4-1.8 1.1-2.2 2.1-.4.9-.3 1.8-.2 1.9l.3.6-.7.1c-1 .2-1.7 1-1.7 2 0 1.1.9 2 2 2 .3 0 .6-.1.9-.2.1-.1.2-.1.3-.2l.5-.4.3.6c.1.1.1.3.2.4.6 1 1.6 1.6 2.8 1.6 1 0 1.9-.4 2.5-1.2l.1-.1h.5l.1.1c1 .7 2.3.8 3.4.3l.2-.1zM26.7 183.4c-3.2-.9-5.5-3.7-5.5-7 0-3.4 2.5-6.4 6-7.1 1.1-.2 2.3-.2 3.4.1.1-5.2 4.5-9.4 9.9-9.4 2.9 0 5.6 1.1 7.8 3.2 2-2.7 5.5-4.4 9.4-4.4 1.5 0 2.9.3 4.2.8 4.2 1.6 6.1 4.4 6.9 6.4.8 1.8.9 3.6.8 4.9 2.9 1 4.9 3.7 4.9 6.8 0 4-3.4 7.3-7.6 7.3-1.1 0-2.2-.2-3.2-.7 0 0 0 .1-.1.1-2 3-5.3 4.9-9.1 4.9-2.8 0-5.5-1.1-7.5-3-2.9 1.6-6.6 1.9-9.7.6-5.4 1.6-10 6-10 6.1l-4 3.8 1.8-5.1c1.1-2.7 1.5-5.9 1.6-8.3zm11.5 1c2.6 1.2 5.8.9 8.3-.7l.3-.2 1.4-.1.4.5c1.5 1.8 3.8 2.8 6.2 2.8 2.8 0 5.3-1.4 6.8-3.7.2-.3.4-.7.6-1l.7-1.5 1.3 1c.2.2.5.3.7.4.7.3 1.4.5 2.2.5 2.7 0 4.9-2.1 4.9-4.7 0-2.3-1.7-4.2-4.1-4.6l-1.6-.3.6-1.5c.2-.4.4-2.3-.6-4.5s-2.8-3.9-5.4-4.9c-1-.4-2-.6-3.2-.6-3 0-6.6 1.4-8 4.5l-.9 2-1.4-1.7c-1.1-1.3-3.5-3.6-7-3.6-4 0-7.2 3.1-7.2 7 0 .5.1 1.1.2 1.6l.8 3.1-2.8-1.8c-1.1-.7-2.4-.9-3.7-.7-2.3.4-3.9 2.4-3.9 4.6 0 2.4 1.9 4.4 4.3 4.7l1.2.1v1.2c0 1.7-.2 3.9-.6 6.2 2.1-1.6 5.2-3.4 8.5-4.3l.5-.1.5.3zm235.2-32.7c-1.2-.3-2.1-1.4-2.1-2.7 0-1.3 1-2.5 2.3-2.7.4-.1.9-.1 1.3 0 0-2 1.7-3.6 3.8-3.6 1.1 0 2.2.4 3 1.2.8-1 2.1-1.7 3.6-1.7.6 0 1.1.1 1.6.3 1.6.6 2.3 1.7 2.7 2.5.3.7.4 1.4.3 1.9 1.1.4 1.9 1.4 1.9 2.6 0 1.5-1.3 2.8-2.9 2.8-.4 0-.8-.1-1.2-.3-.8 1.2-2.1 1.9-3.5 1.9-1.1 0-2.1-.4-2.9-1.2-1.1.6-2.5.7-3.7.2-2.1.6-3.9 2.3-3.9 2.3l-1.5 1.5.7-2c.4-.8.5-2 .5-3zm4.5.4c1 .5 2.3.4 3.2-.3l.1-.1h.5l.2.2c.6.7 1.5 1.1 2.4 1.1 1.1 0 2.1-.5 2.6-1.4.1-.1.2-.3.2-.4l.3-.6.5.4c.1.1.2.1.3.2.3.1.6.2.8.2 1 0 1.9-.8 1.9-1.8 0-.9-.7-1.6-1.6-1.8l-.6-.1.2-.6c.1-.1.2-.9-.2-1.7-.4-.9-1.1-1.5-2.1-1.9-.4-.1-.8-.2-1.2-.2-1.2 0-2.5.5-3.1 1.7l-.3.8-.5-.7c-.4-.5-1.3-1.4-2.7-1.4-1.5 0-2.8 1.2-2.8 2.7 0 .2 0 .4.1.6l.3 1.2-1.1-.7c-.4-.3-.9-.4-1.4-.3-.9.2-1.5.9-1.5 1.8s.7 1.7 1.7 1.8l.5.1v.4c0 .7-.1 1.5-.2 2.4.8-.6 2-1.3 3.3-1.6h.2zM79.3 28.6c-3.7-1-6.3-4.3-6.3-8.1 0-4 2.9-7.5 7-8.3 1.3-.3 2.7-.2 3.9.1.1-6 5.2-10.9 11.5-10.9 3.4 0 6.5 1.3 9.1 3.7C106.7 2 110.8 0 115.4 0c1.7 0 3.4.3 4.8.9 4.9 1.9 7 5.1 8 7.4.9 2.1 1.1 4.2.9 5.7 3.4 1.2 5.7 4.3 5.7 7.9 0 4.6-3.9 8.4-8.8 8.4-1.3 0-2.5-.3-3.7-.8 0 0 0 .1-.1.1-2.3 3.5-6.2 5.6-10.5 5.6-3.3 0-6.4-1.3-8.7-3.5-3.4 1.9-7.6 2.2-11.2.7-6.2 1.8-11.6 7-11.7 7.1L75.5 44l2.1-6c1.1-2.9 1.5-6.6 1.7-9.4zm13.3 1.1c3.1 1.4 6.8 1.1 9.6-.8l.4-.2 1.6-.1.5.6c1.8 2.1 4.4 3.2 7.2 3.2 3.2 0 6.2-1.6 7.9-4.2.2-.4.5-.8.6-1.2l.8-1.7 1.6 1.1c.2.2.5.3.8.5.8.4 1.7.6 2.5.6 3.1 0 5.7-2.5 5.7-5.5 0-2.7-2-4.9-4.7-5.4l-1.9-.4.7-1.7c.2-.4.5-2.7-.7-5.2-1.1-2.6-3.2-4.5-6.3-5.7-1.1-.4-2.4-.7-3.7-.7-3.5 0-7.7 1.6-9.2 5.2l-1 2.3-1.6-2c-1.3-1.6-4-4.2-8.2-4.2-4.6 0-8.4 3.6-8.4 8.1 0 .6.1 1.2.2 1.9l.9 3.6-3.2-2c-1.3-.8-2.8-1.1-4.3-.8-2.6.5-4.6 2.8-4.6 5.4 0 2.8 2.2 5.1 5 5.4l1.4.2v1.3c0 2-.2 4.6-.7 7.2 2.5-1.8 6-3.9 9.9-4.9l.5-.1.7.2zm169.2 65.8c9.5 0 17.2 6.3 17.2 14s-7.7 14-17.2 14-17.2-6.3-17.2-14c-.1-7.8 7.7-14 17.2-14zm0 24.9c7.8 0 14.1-4.9 14.1-10.9s-6.3-10.9-14.1-10.9-14.1 4.9-14.1 10.9 6.3 10.9 14.1 10.9z"/><path class="st0" d="M245.1 118.1c2.4 0 4.3 1.9 4.3 4.3s-1.9 4.3-4.3 4.3-4.3-1.9-4.3-4.3c-.1-2.4 1.9-4.3 4.3-4.3zm0 6.6c1.2 0 2.3-1 2.3-2.3 0-1.2-1-2.3-2.3-2.3-1.2 0-2.3 1-2.3 2.3 0 1.2 1 2.3 2.3 2.3zm-6.3-.8c1.1 0 2 .9 2 2s-.9 2-2 2-2-.9-2-2c-.1-1.1.8-2 2-2zm0 3c.5 0 1-.4 1-1 0-.5-.4-1-1-1-.5 0-1 .4-1 1s.4 1 1 1zm-19.3 3.1 4.1-.1h.7l.5.4s.8.6 2.6.6c1.7 0 2.5-.5 2.5-.5l.6-.5h4.4l.5.1c7.2 1.7 8.3 9.2 7.9 12.9l-.2 1.9h-31.3l-.2-1.9c-.4-3.8.7-11.3 7.9-12.9zm20.7 11.6c0-2.1-.5-7.3-5.4-8.6h-3.2c-.6.3-1.9 1-4.2 1-2.2 0-3.6-.6-4.2-1H220c-4.9 1.2-5.4 6.4-5.4 8.6h25.6zM227.4 109c4.9 0 8.9 4 8.9 8.9 0 4.8-3.7 9.7-8.9 9.7s-8.9-4.9-8.9-9.7c0-4.9 4-8.9 8.9-8.9zm0 15.8c2.8 0 5.8-3.3 5.8-6.9 0-3.2-2.6-5.8-5.8-5.8-3.2 0-5.8 2.6-5.8 5.8.1 3.6 3 6.9 5.8 6.9zm41.9-10.1c-.9 0-1.7-.8-1.7-1.7 0-.9.8-1.7 1.7-1.7.9 0 1.7.8 1.7 1.7 0 1-.8 1.7-1.7 1.7zm-7.4 0c-.9 0-1.7-.8-1.7-1.7 0-.9.8-1.7 1.7-1.7.9 0 1.7.8 1.7 1.7 0 1-.8 1.7-1.7 1.7zm-7.4 0c-.9 0-1.7-.8-1.7-1.7 0-.9.8-1.7 1.7-1.7s1.7.8 1.7 1.7c0 1-.8 1.7-1.7 1.7zM55 125.3c6.2 0 11.2 4.1 11.2 9.1s-5 9.1-11.2 9.1c-6.2 0-11.2-4.1-11.2-9.1s5-9.1 11.2-9.1zm0 16.2c5.1 0 9.2-3.2 9.2-7.1 0-3.9-4.1-7.1-9.2-7.1s-9.2 3.2-9.2 7.1c0 3.9 4.2 7.1 9.2 7.1z"/><path class="st0" d="M44.2 140c1.6 0 2.8 1.3 2.8 2.8 0 1.6-1.3 2.8-2.8 2.8-1.6 0-2.8-1.3-2.8-2.8-.1-1.5 1.2-2.8 2.8-2.8zm0 4.3c.8 0 1.5-.7 1.5-1.5s-.7-1.5-1.5-1.5-1.5.7-1.5 1.5.6 1.5 1.5 1.5zm-4.1-.5c.7 0 1.3.6 1.3 1.3 0 .7-.6 1.3-1.3 1.3-.7 0-1.3-.6-1.3-1.3-.1-.7.5-1.3 1.3-1.3zm0 2c.3 0 .6-.3.6-.6 0-.4-.3-.6-.6-.6-.4 0-.6.3-.6.6-.1.3.2.6.6.6zm-12.6 1.9h3.2l.3.3s.5.4 1.7.4c1.1 0 1.6-.3 1.6-.3l.4-.3h3.1c4.7 1.1 5.4 6 5.1 8.4l-.1 1.2H22.5l-.1-1.2c-.2-2.5.5-7.4 5.1-8.5zm13.5 7.6c0-1.4-.3-4.8-3.5-5.6h-2.1c-.4.2-1.3.6-2.7.6-1.5 0-2.3-.4-2.7-.6h-2.1c-3.2.8-3.5 4.2-3.5 5.6H41zm-8.3-21.2c3.2 0 5.8 2.6 5.8 5.8 0 3.1-2.4 6.3-5.8 6.3s-5.8-3.2-5.8-6.3c0-3.2 2.6-5.8 5.8-5.8zm0 10.3c1.8 0 3.8-2.1 3.8-4.5 0-2.1-1.7-3.8-3.8-3.8-2.1 0-3.8 1.7-3.8 3.8 0 2.4 2 4.5 3.8 4.5zm27.2-6.6c-.6 0-1.1-.5-1.1-1.1 0-.6.5-1.1 1.1-1.1.6 0 1.1.5 1.1 1.1 0 .6-.5 1.1-1.1 1.1zm-4.8 0c-.6 0-1.1-.5-1.1-1.1 0-.6.5-1.1 1.1-1.1.6 0 1.1.5 1.1 1.1 0 .6-.5 1.1-1.1 1.1zm-4.8 0c-.6 0-1.1-.5-1.1-1.1 0-.6.5-1.1 1.1-1.1s1.1.5 1.1 1.1c0 .6-.5 1.1-1.1 1.1zm139.2 38.5c6.2 0 11.2 4.1 11.2 9.1s-5 9.1-11.2 9.1c-6.2 0-11.2-4.1-11.2-9.1s5.1-9.1 11.2-9.1zm0 16.2c5.1 0 9.2-3.2 9.2-7.1 0-3.9-4.1-7.1-9.2-7.1s-9.2 3.2-9.2 7.1c.1 3.9 4.2 7.1 9.2 7.1z"/><path class="st0" d="M178.7 191c1.6 0 2.8 1.3 2.8 2.8 0 1.6-1.3 2.8-2.8 2.8-1.6 0-2.8-1.3-2.8-2.8 0-1.5 1.2-2.8 2.8-2.8zm0 4.3c.8 0 1.5-.7 1.5-1.5s-.7-1.5-1.5-1.5-1.5.7-1.5 1.5.7 1.5 1.5 1.5zm-4.1-.5c.7 0 1.3.6 1.3 1.3 0 .7-.6 1.3-1.3 1.3-.7 0-1.3-.6-1.3-1.3 0-.7.6-1.3 1.3-1.3zm0 2c.4 0 .6-.3.6-.6 0-.4-.3-.6-.6-.6-.4 0-.6.3-.6.6-.1.3.2.6.6.6zm-12.5 1.9h3.2l.3.3s.5.4 1.7.4c1.1 0 1.6-.3 1.6-.3l.4-.3h3.1c4.7 1.1 5.4 6 5.1 8.4l-.1 1.2h-20.3l-.1-1.2c-.3-2.5.4-7.4 5.1-8.5zm13.4 7.6c0-1.4-.3-4.8-3.5-5.6h-2.1c-.4.2-1.3.6-2.7.6-1.5 0-2.3-.4-2.7-.6h-2.1c-3.2.8-3.5 4.2-3.5 5.6h16.6zm-8.3-21.2c3.2 0 5.8 2.6 5.8 5.8 0 3.1-2.4 6.3-5.8 6.3s-5.8-3.2-5.8-6.3c0-3.2 2.6-5.8 5.8-5.8zm0 10.3c1.8 0 3.8-2.1 3.8-4.5 0-2.1-1.7-3.8-3.8-3.8-2.1 0-3.8 1.7-3.8 3.8.1 2.4 2 4.5 3.8 4.5zm27.2-6.6c-.6 0-1.1-.5-1.1-1.1 0-.6.5-1.1 1.1-1.1.6 0 1.1.5 1.1 1.1 0 .6-.5 1.1-1.1 1.1zm-4.8 0c-.6 0-1.1-.5-1.1-1.1 0-.6.5-1.1 1.1-1.1.6 0 1.1.5 1.1 1.1 0 .6-.5 1.1-1.1 1.1zm-4.8 0c-.6 0-1.1-.5-1.1-1.1 0-.6.5-1.1 1.1-1.1.6 0 1.1.5 1.1 1.1 0 .6-.5 1.1-1.1 1.1zM10.3 251.4c1.9 0 3.5 1.3 3.5 2.9s-1.6 2.9-3.5 2.9-3.5-1.3-3.5-2.9 1.6-2.9 3.5-2.9zm0 5.2c1.6 0 2.9-1 2.9-2.3 0-1.3-1.3-2.3-2.9-2.3-1.6 0-2.9 1-2.9 2.3 0 1.3 1.3 2.3 2.9 2.3z"/><path class="st0" d="M6.9 256.1c.5 0 .9.4.9.9s-.4.9-.9.9c-.5.1-.9-.4-.9-.9s.4-.9.9-.9zm0 1.4c.3 0 .5-.2.5-.5s-.2-.5-.5-.5-.5.2-.5.5.2.5.5.5zm-1.3-.1c.2 0 .4.2.4.4s-.2.4-.4.4-.4-.2-.4-.4.2-.4.4-.4zm0 .6c.1 0 .2-.1.2-.2s-.1-.2-.2-.2-.2.1-.2.2.1.2.2.2zm-4 .6h.9l.1.1s.2.1.5.1c.4 0 .5-.1.5-.1l.1-.1h1c1.5.3 1.7 1.9 1.6 2.7v.4H.1v-.4c-.2-.8.1-2.3 1.5-2.7zm4.3 2.5c0-.4-.1-1.5-1.1-1.8h-.7c-.1.1-.4.2-.9.2s-.7-.1-.9-.2h-.7c-1 .3-1.1 1.3-1.1 1.8h5.4zm-2.6-6.9c1 0 1.8.8 1.8 1.9 0 1-.8 2-1.8 2-1.1 0-1.8-1-1.8-2-.1-1 .8-1.9 1.8-1.9zm0 3.3c.6 0 1.2-.7 1.2-1.4s-.5-1.2-1.2-1.2-1.2.5-1.2 1.2c0 .8.6 1.4 1.2 1.4zm8.5-2.1c-.2 0-.3-.2-.3-.4s.2-.4.3-.4c.2 0 .3.2.3.4.1.3-.1.4-.3.4zm-1.5 0c-.2 0-.3-.2-.3-.4s.2-.4.3-.4c.2 0 .3.2.3.4.1.3-.1.4-.3.4zm-1.5 0c-.2 0-.4-.2-.4-.4s.2-.4.4-.4.3.2.3.4c0 .3-.1.4-.3.4zM96.1 76.8c.1 0 .1 0 .2.1-.4 1.3-1.5 2.4-3.1 3-.7.3-1.5.4-2.3.4-.5 0-.9 0-1.3-.1-1.7.4-3.1 1.9-3.1 1.9.3-1 .4-2.3.4-3-1-.8-1.6-1.8-1.6-2.9 0-1.1.5-2.1 1.4-2.8.8-.7 2-1.2 3.3-1.4 1.1 2 3.3 3.8 6.1 4.8zm-2.6.9c.3 0 .6-.3.6-.6s-.3-.6-.6-.6-.6.3-.6.6.2.6.6.6zm-2.6 0c.3 0 .6-.3.6-.6s-.3-.6-.6-.6-.6.3-.6.6.2.6.6.6zm-2.6-1.2c-.3 0-.6.3-.6.6s.3.6.6.6.6-.3.6-.6-.3-.6-.6-.6z"/><path class="st0" d="M108.7 74.3c0 1.5.2 3.9.8 5.9 0 0-2.8-2.8-6-3.7-.8.2-1.7.2-2.6.2-1.6 0-3.2-.3-4.6-.8-3.7-1.3-6.3-4.2-6.3-7.6 0-4.6 4.9-8.3 10.9-8.3 3.2 0 6.1 1.1 8.1 2.8 1.7 1.5 2.8 3.4 2.8 5.5 0 2.5-1.2 4.5-3.1 6zm-12.1-5.1c-.6 0-1 .4-1 1s.4 1 1 1 1-.5 1-1-.5-1-1-1zm4.3 0c-.6 0-1 .4-1 1s.4 1 1 1 1-.5 1-1-.4-1-1-1zm4.4 0c-.6 0-1 .4-1 1s.5 1 1 1c.6 0 1-.5 1-1s-.5-1-1-1zm174.6 65.9c.1 0 .1 0 .2.1-.3 1-1.2 1.9-2.4 2.3-.6.2-1.2.3-1.8.3-.4 0-.7 0-1-.1-1.3.3-2.4 1.4-2.4 1.4.3-.8.3-1.8.3-2.3-.8-.6-1.2-1.4-1.2-2.3 0-.8.4-1.6 1.1-2.2.7-.6 1.6-.9 2.6-1.1.7 1.7 2.4 3.1 4.6 3.9zm-2.1.7c.3 0 .5-.2.5-.5s-.2-.5-.5-.5-.5.2-.5.5c.1.3.3.5.5.5zm-2 0c.3 0 .5-.2.5-.5s-.2-.5-.5-.5-.5.2-.5.5c.1.3.3.5.5.5zm-2-.9c-.3 0-.5.2-.5.5s.2.5.5.5.5-.2.5-.5-.2-.5-.5-.5z"/><path class="st0" d="M289.7 133.2c0 1.1.1 3.1.6 4.6 0 0-2.2-2.2-4.7-2.9-.7.1-1.3.2-2 .2-1.3 0-2.5-.2-3.6-.6-2.9-1-4.9-3.3-4.9-5.9 0-3.6 3.8-6.5 8.5-6.5 2.5 0 4.8.8 6.3 2.2 1.3 1.1 2.1 2.7 2.1 4.3.1 1.8-.8 3.4-2.3 4.6zm-9.5-4c-.4 0-.8.3-.8.8 0 .4.4.8.8.8s.8-.3.8-.8-.3-.8-.8-.8zm3.4 0c-.4 0-.8.3-.8.8 0 .4.3.8.8.8.4 0 .8-.3.8-.8s-.3-.8-.8-.8zm3.4 0c-.4 0-.8.3-.8.8 0 .4.4.8.8.8s.8-.3.8-.8-.3-.8-.8-.8zM187.7 115c.1 0 .2.1.3.1-.6 2.2-2.5 4-5.1 4.9-1.2.4-2.5.6-3.8.6-.8 0-1.5-.1-2.2-.2-2.7.7-5 3-5 3 .6-1.7.7-3.7.7-4.9-1.6-1.2-2.6-3-2.6-4.8 0-1.8.9-3.4 2.3-4.6 1.4-1.2 3.3-2 5.4-2.2 1.9 3.5 5.4 6.5 10 8.1zm-4.3 1.5c.5 0 1-.4 1-1 0-.5-.4-1-1-1s-1 .4-1 1c0 .5.5 1 1 1zm-4.2 0c.5 0 1-.4 1-1 0-.5-.4-1-1-1-.5 0-1 .4-1 1 0 .5.4 1 1 1zm-4.3-2c-.5 0-1 .4-1 1 0 .5.4 1 1 1 .5 0 1-.4 1-1 0-.5-.4-1-1-1z"/><path class="st0" d="M208.5 111c0 2.4.3 6.4 1.4 9.8 0 0-4.5-4.6-9.9-6-1.4.3-2.8.4-4.3.4-2.7 0-5.2-.5-7.5-1.3-6.1-2.2-10.4-6.9-10.4-12.4 0-7.5 8-13.7 17.9-13.7 5.3 0 10.1 1.8 13.4 4.6 2.8 2.4 4.5 5.6 4.5 9.1 0 3.6-2 7-5.1 9.5zm-20-8.4c-.9 0-1.6.7-1.6 1.6 0 .9.7 1.6 1.6 1.6.9 0 1.6-.7 1.6-1.6 0-.9-.7-1.6-1.6-1.6zm7.1 0c-.9 0-1.7.7-1.7 1.6 0 .9.7 1.6 1.7 1.6.9 0 1.6-.7 1.6-1.6.1-.9-.6-1.6-1.6-1.6zm7.2 0c-.9 0-1.6.7-1.6 1.6 0 .9.7 1.6 1.6 1.6.9 0 1.6-.7 1.6-1.6.1-.9-.7-1.6-1.6-1.6zM27.6 208.3c.1 0 .1 0 .2.1-.3 1.1-1.2 1.9-2.5 2.4-.6.2-1.2.3-1.9.3-.4 0-.7 0-1.1-.1-1.3.4-2.4 1.5-2.4 1.5.3-.8.3-1.8.3-2.4-.8-.6-1.2-1.4-1.2-2.3 0-.9.4-1.6 1.1-2.2.7-.6 1.6-1 2.6-1.1 1 1.6 2.7 3 4.9 3.8zm-2.1.7c.3 0 .5-.2.5-.5s-.2-.5-.5-.5-.5.2-.5.5c.1.3.3.5.5.5zm-2 0c.3 0 .5-.2.5-.5s-.2-.5-.5-.5-.5.2-.5.5.2.5.5.5zm-2.1-.9c-.3 0-.5.2-.5.5s.2.5.5.5.5-.2.5-.5-.2-.5-.5-.5z"/><path class="st0" d="M37.7 206.3c0 1.2.1 3.1.7 4.7 0 0-2.2-2.2-4.8-2.9-.7.1-1.4.2-2.1.2-1.3 0-2.6-.2-3.7-.6-3-1.1-5-3.4-5-6 0-3.7 3.9-6.6 8.7-6.6 2.6 0 4.9.9 6.5 2.2 1.4 1.2 2.2 2.7 2.2 4.4 0 1.8-1 3.4-2.5 4.6zm-9.7-4c-.4 0-.8.4-.8.8s.4.8.8.8.8-.4.8-.8c0-.5-.4-.8-.8-.8zm3.5 0c-.4 0-.8.4-.8.8s.4.8.8.8.8-.4.8-.8c0-.5-.4-.8-.8-.8zm3.5 0c-.4 0-.8.4-.8.8s.4.8.8.8.8-.4.8-.8c0-.5-.4-.8-.8-.8zM232.8 77.9c.8-2.1.8-5 .8-5.1v-6.5c0-2 1.6-3.6 3.6-3.6h9.9c2 0 3.6 1.6 3.6 3.6v6.1c0 2-1.6 3.6-3.6 3.6h-8.4c-2.5.1-5.1 2.4-5.1 2.5L232 80l.8-2.1zm16.9-11.6c0-1.4-1.1-2.6-2.6-2.6h-9.9c-1.4 0-2.6 1.2-2.6 2.6v6.6c0 .4 0 2.1-.4 3.8 1.1-.7 2.8-1.6 4.5-1.7h8.4c1.4 0 2.6-1.1 2.6-2.6v-6.1z"/><path class="st0" d="M238.6 70.7c.4 0 .8.4.8.8s-.4.8-.8.8-.8-.4-.8-.8c0-.5.3-.8.8-.8zm3.5 0c.4 0 .8.4.8.8s-.4.8-.8.8-.8-.4-.8-.8c0-.5.3-.8.8-.8zm3.5 0c.4 0 .8.4.8.8s-.4.8-.8.8-.8-.4-.8-.8c0-.5.3-.8.8-.8zM137.9 28c.9-2.4 1-5.8 1-5.8v-7.4c0-2.3 1.9-4.1 4.1-4.1h11.4c2.3 0 4.1 1.9 4.1 4.1v7c0 2.3-1.9 4.1-4.1 4.1h-9.6c-2.9.2-5.9 2.8-5.9 2.8l-1.9 1.7.9-2.4zm19.5-13.4c0-1.6-1.3-3-3-3H143c-1.6 0-3 1.3-3 3v7.6c0 .4-.1 2.4-.5 4.4 1.3-.9 3.2-1.9 5.2-2h9.7c1.6 0 3-1.3 3-3v-7z"/><path class="st0" d="M144.6 19.7c.5 0 .9.4.9.9s-.4.9-.9.9-.9-.4-.9-.9.4-.9.9-.9zm4 0c.5 0 .9.4.9.9s-.4.9-.9.9-.9-.4-.9-.9.4-.9.9-.9zm4.1 0c.5 0 .9.4.9.9s-.4.9-.9.9-.9-.4-.9-.9c-.1-.5.4-.9.9-.9zM58.8 219c.5-1.2.5-2.9.5-2.9v-3.8c0-1.2.9-2.1 2.1-2.1h5.8c1.2 0 2.1.9 2.1 2.1v3.6c0 1.2-.9 2.1-2.1 2.1h-4.9c-1.5.1-3 1.4-3 1.4l-.9.9.4-1.3zm9.9-6.8c0-.8-.7-1.5-1.5-1.5h-5.8c-.8 0-1.5.7-1.5 1.5v3.9c0 .2 0 1.2-.3 2.2.6-.4 1.6-1 2.6-1h4.9c.8 0 1.5-.7 1.5-1.5v-3.6z"/><path class="st0" d="M62.2 214.8c.3 0 .5.2.5.5s-.2.5-.5.5-.5-.2-.5-.5.2-.5.5-.5zm2 0c.3 0 .5.2.5.5s-.2.5-.5.5-.5-.2-.5-.5c.1-.3.3-.5.5-.5zm2.1 0c.3 0 .5.2.5.5s-.2.5-.5.5-.5-.2-.5-.5.2-.5.5-.5zm66.1-173.7s4.1 3.7 8 3.9h2.8v2.6h-2.9c-2.4-.1-4.8-1.2-6.6-2.3.4 2.4.5 4.5.5 5.1v10.7c0 2 1.6 3.7 3.7 3.7H154c2 0 3.7-1.6 3.7-3.7V59h2.6v2.2c0 3.5-2.8 6.3-6.3 6.3h-16.1c-3.5 0-6.3-2.8-6.3-6.3V50.6s0-4.7-1.3-8l-2-5.2 4.1 3.7z"/><path class="st0" d="M153.1 27.1h18.8c5.7-.3 11.4-5.4 11.5-5.5l4.2-3.8-2 5.2c-1.8 4.7-1.9 11.2-1.9 11.3V49c0 4.5-3.7 8.2-8.2 8.2h-22.2c-4.5 0-8.2-3.7-8.2-8.2V35.3c-.2-4.5 3.5-8.2 8-8.2zm-5.6 22c0 3.1 2.5 5.6 5.6 5.6h22.2c3.1 0 5.6-2.5 5.6-5.6v-15c0-.8.1-4.4.9-8.2-2.5 1.6-6.1 3.5-9.9 3.7h-18.8c-3.1 0-5.6 2.5-5.6 5.6v13.9z"/><path class="st0" d="M155.2 45.3c1.1 0 1.9.9 1.9 1.9 0 1.1-.9 1.9-1.9 1.9-1.1 0-1.9-.9-1.9-1.9 0-1 .9-1.9 1.9-1.9zm8.4 0c1.1 0 1.9.9 1.9 1.9 0 1.1-.9 1.9-1.9 1.9-1.1 0-1.9-.9-1.9-1.9 0-1 .9-1.9 1.9-1.9zm8.4 0c1.1 0 1.9.9 1.9 1.9 0 1.1-.9 1.9-1.9 1.9-1.1 0-1.9-.9-1.9-1.9 0-1 .8-1.9 1.9-1.9zm-33.3 14.6c0-.8.6-1.4 1.4-1.4.8 0 1.4.6 1.4 1.4 0 .8-.6 1.4-1.4 1.4-.7 0-1.4-.7-1.4-1.4zm7.5-1.4c.8 0 1.4.6 1.4 1.4 0 .8-.6 1.4-1.4 1.4-.8 0-1.4-.6-1.4-1.4 0-.8.7-1.4 1.4-1.4zm7.5 1.4c0 .8-.6 1.4-1.4 1.4-.8 0-1.4-.6-1.4-1.4 0-.8.6-1.4 1.4-1.4.8 0 1.4.6 1.4 1.4zM22 239.2s.6.6 1.2.6h.4v.4h-.4c-.4 0-.7-.2-1-.3.1.4.1.7.1.8v1.7c0 .3.3.6.6.6h2.5c.3 0 .6-.3.6-.6v-.3h.4v.3c0 .5-.4 1-1 1h-2.5c-.5 0-1-.4-1-1v-1.6s0-.7-.2-1.2l-.3-.8.6.4z"/><path class="st0" d="M25.2 237h2.9c.9 0 1.8-.8 1.8-.8l.6-.6-.3.8c-.3.7-.3 1.7-.3 1.7v2.2c0 .7-.6 1.3-1.3 1.3h-3.4c-.7 0-1.3-.6-1.3-1.3v-2.1c0-.6.6-1.2 1.3-1.2zm-.8 3.4c0 .5.4.9.9.9h3.4c.5 0 .9-.4.9-.9v-2.3c0-.1 0-.7.1-1.3-.4.3-.9.5-1.5.6h-2.9c-.5 0-.9.4-.9.9v2.1z"/><path class="st0" d="M25.5 239.8c.2 0 .3.1.3.3 0 .2-.1.3-.3.3-.2 0-.3-.1-.3-.3 0-.2.2-.3.3-.3zm1.3 0c.2 0 .3.1.3.3 0 .2-.1.3-.3.3-.2 0-.3-.1-.3-.3 0-.2.2-.3.3-.3zm1.3 0c.2 0 .3.1.3.3 0 .2-.1.3-.3.3-.2 0-.3-.1-.3-.3 0-.2.2-.3.3-.3zM23 242c0-.1.1-.2.2-.2s.2.1.2.2-.1.2-.2.2c-.1.1-.2 0-.2-.2zm1.2-.2c.1 0 .2.1.2.2s-.1.2-.2.2-.2-.1-.2-.2c-.1-.1 0-.2.2-.2zm1.1.2c0 .1-.1.2-.2.2s-.2-.1-.2-.2.1-.2.2-.2.2.1.2.2zm55.1-58.8s3.9 3.5 7.6 3.7h2.7v2.5H88c-2.3-.1-4.6-1.2-6.3-2.2.4 2.3.5 4.4.5 4.9v10.3c0 1.9 1.6 3.5 3.5 3.5h15.4c1.9 0 3.5-1.6 3.5-3.5v-2.1h2.5v2.1c0 3.3-2.7 6-6 6H85.7c-3.3 0-6-2.7-6-6v-10.2s0-4.5-1.3-7.7l-2-5 4 3.7z"/><path class="st0" d="M100.3 169.8h18c5.4-.3 10.9-5.2 11-5.3l4-3.6-2 5c-1.8 4.5-1.8 10.8-1.8 10.8v14c0 4.3-3.5 7.9-7.9 7.9h-21.3c-4.3 0-7.9-3.5-7.9-7.9v-13.1c0-4.3 3.6-7.8 7.9-7.8zm-5.4 21c0 3 2.4 5.4 5.4 5.4h21.3c3 0 5.4-2.4 5.4-5.4v-14.2c0-.8.1-4.2.9-7.8-2.4 1.6-5.9 3.4-9.5 3.6h-18c-3 0-5.4 2.4-5.4 5.4v13z"/><path class="st0" d="M102.3 187.2c1 0 1.9.8 1.9 1.9 0 1-.8 1.9-1.9 1.9-1 0-1.9-.8-1.9-1.9.1-1 .9-1.9 1.9-1.9zm8 0c1 0 1.9.8 1.9 1.9 0 1-.8 1.9-1.9 1.9-1 0-1.9-.8-1.9-1.9.1-1 .9-1.9 1.9-1.9zm8.1 0c1 0 1.8.8 1.8 1.9 0 1-.8 1.9-1.8 1.9s-1.9-.8-1.9-1.9c0-1 .9-1.9 1.9-1.9zm-31.9 13.9c0-.7.6-1.3 1.3-1.3.7 0 1.3.6 1.3 1.3 0 .7-.6 1.3-1.3 1.3-.7.1-1.3-.5-1.3-1.3zm7.2-1.3c.7 0 1.3.6 1.3 1.3 0 .7-.6 1.3-1.3 1.3-.7 0-1.3-.6-1.3-1.3-.1-.7.5-1.3 1.3-1.3zm7.2 1.3c0 .7-.6 1.3-1.3 1.3-.7 0-1.3-.6-1.3-1.3 0-.7.6-1.3 1.3-1.3.7 0 1.3.6 1.3 1.3zm6.8-91.5s1.4 1.3 2.8 1.4h1v.9h-1c-.9 0-1.7-.4-2.3-.8.1.8.2 1.6.2 1.8v3.8c0 .7.6 1.3 1.3 1.3h5.7c.7 0 1.3-.6 1.3-1.3v-.8h.9v.8c0 1.2-1 2.2-2.2 2.2h-5.7c-1.2 0-2.2-1-2.2-2.2V113s0-1.7-.5-2.8l-.7-1.8 1.4 1.2z"/><path class="st0" d="M115 104.6h6.6c2-.1 4-1.9 4-1.9l1.5-1.3-.7 1.8c-.6 1.6-.7 4-.7 4v5.1c0 1.6-1.3 2.9-2.9 2.9H115c-1.6 0-2.9-1.3-2.9-2.9v-4.8c0-1.6 1.3-2.9 2.9-2.9zm-2 7.7c0 1.1.9 2 2 2h7.8c1.1 0 2-.9 2-2v-5.2c0-.3 0-1.6.3-2.9-.9.6-2.2 1.2-3.5 1.3H115c-1.1 0-2 .9-2 2v4.8z"/><path class="st0" d="M115.7 111c.4 0 .7.3.7.7 0 .4-.3.7-.7.7-.4 0-.7-.3-.7-.7.1-.4.4-.7.7-.7zm3 0c.4 0 .7.3.7.7 0 .4-.3.7-.7.7-.4 0-.7-.3-.7-.7 0-.4.3-.7.7-.7zm3 0c.4 0 .7.3.7.7 0 .4-.3.7-.7.7-.4 0-.7-.3-.7-.7 0-.4.3-.7.7-.7zm-11.8 5.2c0-.3.2-.5.5-.5s.5.2.5.5-.2.5-.5.5c-.2-.1-.5-.3-.5-.5zm2.7-.5c.3 0 .5.2.5.5s-.2.5-.5.5-.5-.2-.5-.5.2-.5.5-.5zm2.6.5c0 .3-.2.5-.5.5s-.5-.2-.5-.5.2-.5.5-.5.5.2.5.5zm124.4 54.1s-1.4 1.2-2.7 1.3h-.9v.9h1c.8 0 1.6-.4 2.2-.8-.1.8-.2 1.5-.2 1.7v3.6c0 .7-.6 1.2-1.2 1.2h-5.4c-.7 0-1.2-.6-1.2-1.2v-.7h-.9v.7c0 1.2 1 2.1 2.1 2.1h5.4c1.2 0 2.1-.9 2.1-2.1v-3.5s0-1.6.4-2.7l.7-1.8-1.4 1.3z"/><path class="st0" d="M235.4 168.4v4.6c0 1.5-1.3 2.8-2.8 2.8H225c-1.5 0-2.8-1.2-2.8-2.8v-4.9s0-2.2-.6-3.8l-.7-1.8 1.4 1.3s2 1.7 3.9 1.8h6.4c1.5 0 2.8 1.2 2.8 2.8zm-.9 0c0-1-.9-1.9-1.9-1.9h-6.4c-1.3-.1-2.5-.7-3.4-1.2.3 1.3.3 2.5.3 2.7v5c0 1 .9 1.9 1.9 1.9h7.6c1 0 1.9-.8 1.9-1.9v-4.6z"/><path class="st0" d="M231.9 171.7c-.4 0-.7.3-.7.6 0 .4.3.6.7.6.4 0 .7-.3.7-.6-.1-.3-.4-.6-.7-.6zm-2.9 0c-.4 0-.7.3-.7.6 0 .4.3.6.7.6.4 0 .7-.3.7-.6s-.3-.6-.7-.6zm-2.8 0c-.4 0-.7.3-.7.6 0 .4.3.6.7.6.4 0 .7-.3.7-.6-.1-.3-.4-.6-.7-.6zm11.3 4.9c0-.3-.2-.5-.5-.5s-.5.2-.5.5.2.5.5.5c.3-.1.5-.3.5-.5zm-2.6-.5c-.3 0-.5.2-.5.5s.2.5.5.5.5-.2.5-.5-.2-.5-.5-.5zm-2.5.5c0 .3.2.5.5.5s.5-.2.5-.5-.2-.5-.5-.5-.5.2-.5.5zm-59-4.8c1.7 0 3.2 1.4 3.2 3.2 0 1.7-1.4 3.2-3.2 3.2-1.7 0-3.2-1.4-3.2-3.2 0-1.8 1.4-3.2 3.2-3.2zm0 4.9c1 0 1.7-.8 1.7-1.7 0-1-.8-1.7-1.7-1.7-1 0-1.7.8-1.7 1.7 0 .9.7 1.7 1.7 1.7zm3.9-15.4v-1h5.7c.1.3.3.6.4 1h-6.1zm0 3.1v-1h7.5c.3.3.5.6.8 1h-8.3zm0 2.1h5.9v1h-5.9z"/><path class="st0" d="M169.8 177c.8 0 1.5.7 1.5 1.5s-.7 1.5-1.5 1.5-1.5-.7-1.5-1.5c.1-.8.7-1.5 1.5-1.5zm0 2.2c.4 0 .8-.3.8-.8s-.3-.8-.8-.8c-.4 0-.8.3-.8.8s.4.8.8.8zm11.3-25.9c-.2.7-.3 1.5-.3 2.2-4.6.9-8.1 4.1-8.1 7.9 0 4.5 4.7 8.2 10.6 8.2 2.7 0 5.2-.8 7.1-2.1.7.3 1.5.6 2.3.9-2.3 2.1-5.7 3.4-9.4 3.4-7 0-12.7-4.6-12.7-10.3 0-5.1 4.5-9.3 10.5-10.2z"/><path class="st0" d="M186.2 163.5h-1.4c-.5-.7-1-1.4-1.4-2.1h1.2c.5.7 1 1.4 1.6 2.1zm-1.5-2.2h-1.2c-.2-.3-.3-.6-.4-1h1.2c.1.4.2.7.4 1z"/><path class="st0" d="M187.1 164.4h-1.5c-.3-.3-.6-.6-.8-1h1.4c.3.4.6.7.9 1z"/><path class="st0" d="M199.5 142.1c9.6 0 17.3 6.3 17.3 14s-7.8 14-17.3 14c-5.7 0-10.7-2.2-13.9-5.7h3.1c2.8 2.2 6.6 3.5 10.8 3.5 8.4 0 15.2-5.3 15.2-11.9 0-6.5-6.8-11.9-15.2-11.9-8.4 0-15.2 5.3-15.2 11.9 0 1.5.4 2.9 1 4.3h-2.4c-.5-1.3-.8-2.8-.8-4.3.1-7.6 7.9-13.9 17.4-13.9z"/><path class="st0" d="M187.7 163.5h-1.5c-.6-.7-1.1-1.4-1.5-2.1h1.2c.5.7 1.1 1.4 1.8 2.1zm-1.8-2.2h-1.2c-.2-.3-.3-.6-.5-1h1.2c.2.4.3.7.5 1zm.3 2.2h1.5c.3.3.7.7 1.1 1h-1.6l-1-1zm28.6 2.1c2.3 0 4.1 1.9 4.1 4.1 0 2.3-1.9 4.1-4.1 4.1-2.3 0-4.1-1.9-4.1-4.1-.1-2.3 1.8-4.1 4.1-4.1zm0 6.8c1.5 0 2.7-1.2 2.7-2.7 0-1.5-1.2-2.7-2.7-2.7-1.5 0-2.7 1.2-2.7 2.7-.1 1.5 1.2 2.7 2.7 2.7zm3.8 1c1.1 0 1.9.9 1.9 1.9 0 1.1-.9 1.9-1.9 1.9-1.1 0-1.9-.9-1.9-1.9 0-1 .8-1.9 1.9-1.9zm0 3.1c.7 0 1.2-.5 1.2-1.2s-.5-1.2-1.2-1.2-1.2.5-1.2 1.2.5 1.2 1.2 1.2zm-27.9-25.6H208v1.4h-17.3zm0 4.5H208v1.4h-17.3zm8.7 4.5h8.7v1.4h-8.7zm46.7-66.8c1.7 0 3 1.3 3 3s-1.3 3-3 3-3-1.3-3-3 1.3-3 3-3zm0 4.6c.9 0 1.6-.7 1.6-1.6 0-.9-.7-1.6-1.6-1.6-.9 0-1.6.7-1.6 1.6-.1.9.7 1.6 1.6 1.6zm3.7-14.6v-.9h5.4c.1.3.3.6.4.9h-5.8zm0 3v-.9h7.1c.2.3.5.6.8.9h-7.9zm0 2h5.6v.9h-5.6z"/><path class="st0" d="M242.7 98c.8 0 1.4.6 1.4 1.4 0 .8-.6 1.4-1.4 1.4-.8 0-1.4-.6-1.4-1.4 0-.7.6-1.4 1.4-1.4zm0 2.2c.4 0 .7-.3.7-.7 0-.4-.3-.7-.7-.7-.4 0-.7.3-.7.7 0 .3.3.7.7.7zm10.7-24.7c-.2.7-.2 1.4-.3 2.1-4.4.8-7.7 3.9-7.7 7.6 0 4.3 4.5 7.8 10 7.8 2.6 0 4.9-.8 6.7-2 .7.3 1.4.6 2.2.8-2.2 2-5.4 3.2-8.9 3.2-6.7 0-12.1-4.4-12.1-9.8.1-4.9 4.4-8.9 10.1-9.7z"/><path class="st0" d="M258.2 85.2H257c-.5-.6-.9-1.3-1.3-2h1.1c.4.6.9 1.3 1.4 2zm-1.4-2.1h-1.1c-.2-.3-.3-.6-.4-.9h1.1c.1.3.2.6.4.9z"/><path class="st0" d="M259.1 86.1h-1.4c-.3-.3-.5-.6-.8-.9h1.3l.9.9z"/><path class="st0" d="M270.9 64.9c9.1 0 16.5 6 16.5 13.3 0 7.3-7.4 13.3-16.5 13.3-5.4 0-10.2-2.1-13.2-5.4h2.9c2.6 2.1 6.3 3.4 10.3 3.4 8 0 14.4-5.1 14.4-11.3 0-6.2-6.5-11.3-14.4-11.3-8 0-14.4 5.1-14.4 11.3 0 1.4.4 2.8 1 4.1h-2.2c-.5-1.3-.8-2.6-.8-4.1 0-7.4 7.4-13.3 16.4-13.3z"/><path class="st0" d="M259.6 85.2h-1.4c-.6-.6-1-1.3-1.4-2h1.2c.5.7 1 1.3 1.6 2zm-1.6-2.1h-1.2c-.2-.3-.3-.6-.4-.9h1.1c.1.3.3.6.5.9zm.2 2.1h1.4c.3.3.7.6 1 .9h-1.5l-.9-.9zm27.2 2c2.2 0 3.9 1.8 3.9 3.9 0 2.2-1.8 3.9-3.9 3.9-2.2 0-3.9-1.8-3.9-3.9 0-2.1 1.7-3.9 3.9-3.9zm0 6.5c1.4 0 2.6-1.2 2.6-2.6 0-1.4-1.2-2.6-2.6-2.6-1.4 0-2.6 1.2-2.6 2.6 0 1.4 1.2 2.6 2.6 2.6zm3.6.9c1 0 1.8.8 1.8 1.8s-.8 1.8-1.8 1.8-1.8-.8-1.8-1.8.8-1.8 1.8-1.8zm0 3c.6 0 1.1-.5 1.1-1.1 0-.6-.5-1.1-1.1-1.1-.6 0-1.1.5-1.1 1.1 0 .6.5 1.1 1.1 1.1zm-26.4-24.4h16.5v1.3h-16.5zm0 4.3h16.5v1.3h-16.5zm8.2 4.3h8.2v1.3h-8.2zM78.3 104.3c1.2 0 2.2 1 2.2 2.2 0 1.2-1 2.2-2.2 2.2-1.2 0-2.2-1-2.2-2.2-.1-1.2.9-2.2 2.2-2.2zm0 3.5c.7 0 1.2-.6 1.2-1.2 0-.7-.5-1.2-1.2-1.2s-1.2.6-1.2 1.2c-.1.6.5 1.2 1.2 1.2zM81.1 97v-.7h4c.1.2.2.5.3.7h-4.3zm0 2.1v-.7h5.3c.2.2.4.5.6.7h-5.9zm0 1.5h4.2v.7h-4.2zm-5.3 7.4c.6 0 1 .5 1 1 0 .6-.5 1-1 1-.6 0-1-.5-1-1-.1-.5.4-1 1-1zm0 1.6c.3 0 .5-.2.5-.5s-.2-.5-.5-.5-.5.2-.5.5c-.1.3.2.5.5.5z"/><path class="st0" d="M83.7 91.3c-.1.5-.2 1-.2 1.6-3.3.6-5.7 2.9-5.7 5.6 0 3.2 3.4 5.8 7.5 5.8 1.9 0 3.7-.6 5-1.5.5.2 1.1.5 1.6.6-1.6 1.5-4 2.4-6.6 2.4-5 0-9-3.3-9-7.3 0-3.6 3.2-6.6 7.4-7.2z"/><path class="st0" d="M87.3 98.5h-1c-.4-.5-.7-1-1-1.5h.8c.5.5.8 1 1.2 1.5zm-1-1.5h-.8c-.1-.2-.2-.4-.3-.7h.8c0 .2.1.4.3.7z"/><path class="st0" d="M88 99.1h-1c-.2-.2-.4-.4-.6-.7h1c.1.3.4.5.6.7z"/><path class="st0" d="M96.8 83.3c6.8 0 12.3 4.4 12.3 9.9s-5.5 9.9-12.3 9.9c-4 0-7.6-1.6-9.8-4h2.2c1.9 1.5 4.7 2.5 7.6 2.5 5.9 0 10.8-3.8 10.8-8.4 0-4.6-4.8-8.4-10.8-8.4-5.9 0-10.7 3.8-10.7 8.4 0 1.1.3 2.1.7 3h-1.6c-.4-1-.6-2-.6-3-.1-5.4 5.4-9.9 12.2-9.9z"/><path class="st0" d="M88.4 98.5h-1c-.4-.5-.8-1-1.1-1.5h.9c.3.5.7 1 1.2 1.5zM87.2 97h-.9c-.1-.2-.2-.4-.3-.7h.8c.1.2.2.4.4.7zm.1 1.5h1c.2.2.5.5.8.7H88c-.2-.3-.5-.5-.7-.7zm20.2 1.5c1.6 0 2.9 1.3 2.9 2.9 0 1.6-1.3 2.9-2.9 2.9-1.6 0-2.9-1.3-2.9-2.9 0-1.6 1.3-2.9 2.9-2.9zm0 4.8c1.1 0 1.9-.9 1.9-1.9 0-1.1-.9-1.9-1.9-1.9-1.1 0-1.9.9-1.9 1.9 0 1 .9 1.9 1.9 1.9zm2.8.7c.7 0 1.4.6 1.4 1.4 0 .7-.6 1.4-1.4 1.4-.7 0-1.4-.6-1.4-1.4 0-.8.6-1.4 1.4-1.4zm0 2.2c.5 0 .8-.4.8-.8 0-.5-.4-.9-.8-.9-.5 0-.8.4-.8.9-.1.4.3.8.8.8zM90.6 89.6h12.3v1H90.6zm0 3.2h12.3v1H90.6zm6.1 3.1h6.1v1h-6.1zM45.2 209.4c1.2 0 2.2 1 2.2 2.2 0 1.2-1 2.2-2.2 2.2-1.2 0-2.2-1-2.2-2.2 0-1.2 1-2.2 2.2-2.2zm0 3.5c.7 0 1.2-.6 1.2-1.2 0-.7-.6-1.2-1.2-1.2-.7 0-1.2.6-1.2 1.2s.5 1.2 1.2 1.2zM48 202v-.7h4.1c.1.2.2.5.3.7H48zm0 2.2v-.7h5.3c.2.2.4.5.6.7H48zm0 1.5h4.2v.7H48zm-5.3 7.4c.6 0 1 .5 1 1 0 .6-.5 1-1 1-.6 0-1-.5-1-1-.1-.5.4-1 1-1zm0 1.6c.3 0 .5-.2.5-.5s-.2-.5-.5-.5-.5.2-.5.5c-.1.3.2.5.5.5z"/><path class="st0" d="M50.7 196.3c-.1.5-.2 1-.2 1.6-3.3.6-5.8 2.9-5.8 5.7 0 3.2 3.4 5.8 7.5 5.8 1.9 0 3.7-.6 5-1.5.5.2 1.1.5 1.6.6-1.7 1.5-4 2.4-6.7 2.4-5 0-9-3.3-9-7.3.1-3.7 3.4-6.7 7.6-7.3z"/><path class="st0" d="M54.3 203.5h-1c-.4-.5-.7-1-1-1.5h.9c.4.5.7 1 1.1 1.5zm-1-1.5h-.9c-.1-.2-.2-.5-.3-.7h.8c.1.2.2.5.4.7zm1.7 2.2h-1c-.2-.2-.4-.4-.6-.7h1c.1.2.4.5.6.7z"/><path class="st0" d="M63.8 188.3c6.8 0 12.3 4.5 12.3 10s-5.5 10-12.3 10c-4.1 0-7.6-1.6-9.9-4h2.2c2 1.6 4.7 2.5 7.7 2.5 6 0 10.8-3.8 10.8-8.4 0-4.7-4.9-8.4-10.8-8.4-6 0-10.8 3.8-10.8 8.4 0 1.1.3 2.1.7 3h-1.6c-.4-1-.6-2-.6-3 0-5.6 5.5-10.1 12.3-10.1z"/><path class="st0" d="M55.4 203.5h-1c-.4-.5-.8-1-1.1-1.5h.9c.3.5.7 1 1.2 1.5zm-1.3-1.5h-.9c-.1-.2-.2-.5-.3-.7h.8c.2.2.3.5.4.7zm.2 1.5h1c.2.2.5.5.8.7H55l-.7-.7zm20.4 1.5c1.6 0 2.9 1.3 2.9 2.9 0 1.6-1.3 2.9-2.9 2.9-1.6 0-2.9-1.3-2.9-2.9-.1-1.6 1.2-2.9 2.9-2.9zm0 4.9c1.1 0 1.9-.9 1.9-1.9s-.9-1.9-1.9-1.9-1.9.9-1.9 1.9.8 1.9 1.9 1.9zm2.7.7c.8 0 1.4.6 1.4 1.4s-.6 1.4-1.4 1.4-1.4-.7-1.4-1.4.6-1.4 1.4-1.4zm0 2.2c.5 0 .9-.4.9-.9s-.4-.9-.9-.9-.9.4-.9.9.4.9.9.9zm-19.8-18.2h12.3v1H57.6zm0 3.2h12.3v1H57.6zm6.1 3.2h6.2v1h-6.2zM247 185.7c-2.9 0-5.3-2.4-5.3-5.3 0-2.6 1.9-4.8 4.4-5.2-.5-1.1-.7-7.2 5.7-9.8 3.9-1.6 9.3.1 10.9 4.1 1.5-2 3.9-3.6 6.9-3.6 4 0 7.3 3.3 7.3 7.3 0 .6-.1 1.2-.2 1.7.8-.5 1.8-.9 2.9-.9.4 0 .7 0 1.1.1 2.4.5 4.2 2.6 4.2 5.2 0 2.7-2.7 4.8-5.4 5.1 0 .7.1 3.5-2.1 4.3-2.4.9-4.2-.8-5.2-1.6-1.1.5-2.4 1.5-4.6 1.2-2.5-.3-4-1.6-4-1.6-1.5 1.8-3.7 2.9-6.1 2.9-2.9 0-5.4-1.5-6.8-3.8-.2-.3-.4-.7-.5-1.1-.2.2-.5.3-.8.5-.7.3-1.5.5-2.4.5zm24.4-3.7c1 0 1.8-.8 1.8-1.8s-.8-1.8-1.8-1.8-1.8.8-1.8 1.8c0 .9.8 1.8 1.8 1.8zm-7.8 0c1 0 1.8-.8 1.8-1.8s-.8-1.8-1.8-1.8-1.8.8-1.8 1.8c0 .9.8 1.8 1.8 1.8zm-7.8 0c1 0 1.8-.8 1.8-1.8s-.8-1.8-1.8-1.8-1.8.8-1.8 1.8c0 .9.8 1.8 1.8 1.8zm-14.1 9.6c0-1.6 1.8-2.9 4.1-2.9s4.1 1.3 4.1 2.9c0 1.6-1.8 2.9-4.1 2.9-2.2 0-4.1-1.3-4.1-2.9zm0 5.2c.9 0 1.7.6 1.7 1.4 0 .8-.8 1.4-1.7 1.4-.9 0-1.7-.6-1.7-1.4 0-.8.8-1.4 1.7-1.4zM31.8 118.2c-2.9 0-5.3-2.4-5.3-5.3 0-2.6 1.9-4.8 4.4-5.2-.5-1.1-.7-7.2 5.7-9.8 3.9-1.6 9.3.1 10.9 4.1 1.5-2 3.9-3.6 6.9-3.6 4 0 7.3 3.3 7.3 7.3 0 .6-.1 1.2-.2 1.7.8-.5 1.8-.9 2.9-.9.4 0 .7 0 1.1.1 2.4.5 4.2 2.6 4.2 5.2 0 2.7-2.7 4.8-5.4 5.1 0 .7.1 3.5-2.1 4.3-2.4.9-4.2-.8-5.2-1.6-1.1.5-2.4 1.5-4.6 1.2-2.5-.3-4-1.6-4-1.6-1.5 1.8-3.7 2.9-6.1 2.9-2.9 0-5.4-1.5-6.8-3.8-.2-.3-.4-.7-.5-1.1-.2.2-.5.3-.8.5-.8.3-1.6.5-2.4.5zm24.4-3.7c1 0 1.8-.8 1.8-1.8s-.8-1.8-1.8-1.8-1.8.8-1.8 1.8.8 1.8 1.8 1.8zm-7.8 0c1 0 1.8-.8 1.8-1.8s-.8-1.8-1.8-1.8-1.8.8-1.8 1.8c-.1 1 .8 1.8 1.8 1.8zm-7.9 0c1 0 1.8-.8 1.8-1.8s-.8-1.8-1.8-1.8-1.8.8-1.8 1.8.8 1.8 1.8 1.8zm-14 9.7c0-1.6 1.8-2.9 4.1-2.9s4.1 1.3 4.1 2.9c0 1.6-1.8 2.9-4.1 2.9s-4.1-1.3-4.1-2.9z"/><ellipse class="st0" cx="26.5" cy="130.8" rx="1.7" ry="1.4"/><path class="st0" d="M42.8 223.4c-1.1 0-2.1-.9-2.1-2.1 0-1 .7-1.8 1.7-2-.2-.4-.3-2.8 2.2-3.8 1.5-.6 3.6 0 4.2 1.6.6-.8 1.5-1.4 2.7-1.4 1.6 0 2.8 1.3 2.8 2.8 0 .2 0 .4-.1.7.3-.2.7-.3 1.1-.3h.4c.9.2 1.6 1 1.6 2 0 1.1-1.1 1.8-2.1 2 0 .3 0 1.3-.8 1.7-.9.3-1.6-.3-2-.6-.4.2-.9.6-1.8.5-1-.1-1.6-.6-1.6-.6-.6.7-1.4 1.1-2.4 1.1-1.1 0-2.1-.6-2.6-1.5-.1-.1-.2-.3-.2-.4-.1.1-.2.1-.3.2-.1 0-.4.1-.7.1zm9.4-1.4c.4 0 .7-.3.7-.7 0-.4-.3-.7-.7-.7-.4 0-.7.3-.7.7 0 .4.3.7.7.7zm-3.1 0c.4 0 .7-.3.7-.7 0-.4-.3-.7-.7-.7-.4 0-.7.3-.7.7.1.4.4.7.7.7zm-3 0c.4 0 .7-.3.7-.7 0-.4-.3-.7-.7-.7-.4 0-.7.3-.7.7 0 .4.3.7.7.7zm-5.4 3.7c0-.6.7-1.1 1.6-1.1.9 0 1.6.5 1.6 1.1 0 .6-.7 1.1-1.6 1.1-.9 0-1.6-.5-1.6-1.1zm0 2c.4 0 .7.2.7.5s-.3.5-.7.5c-.4 0-.7-.2-.7-.5s.3-.5.7-.5zm143.2-20.1c.6-1.6.6-3.9.6-3.9v-5c0-1.5 1.2-2.8 2.8-2.8h7.7c1.5 0 2.8 1.2 2.8 2.8v4.7c0 1.5-1.2 2.8-2.8 2.8h-6.5c-2 .1-4 1.9-4 1.9l-1.2 1.1.6-1.6zm13.1-9c0-1.1-.9-2-2-2h-7.7c-1.1 0-2 .9-2 2v5.1c0 .3 0 1.6-.4 3 .8-.6 2.2-1.3 3.5-1.4h6.5c1.1 0 2-.9 2-2v-4.7z"/><path class="st0" d="M193.8 203.8h-5.5v-.1s-.2-1.8 1.3-2.2h.7s.2.2.7.2c.5 0 .7-.2.7-.2h.7c1.6.4 1.5 2.2 1.4 2.3zm-2.7-2.7c-.8 0-1.4-.8-1.4-1.6s.6-1.4 1.4-1.4c.8 0 1.4.6 1.4 1.4 0 .7-.6 1.6-1.4 1.6zm25-95.6c1.1-2.7 1.1-6.5 1.1-6.6v-8.5c0-2.5 2.1-4.6 4.6-4.6h12.9c2.5 0 4.6 2.1 4.6 4.6v7.9c0 2.5-2.1 4.6-4.6 4.6h-10.8c-3.3.2-6.7 3.2-6.7 3.2l-2 1.8.9-2.4zm22-15.1c0-1.9-1.5-3.4-3.4-3.4h-12.9c-1.9 0-3.4 1.5-3.4 3.4V99c0 .5-.1 2.8-.6 5 1.4-1 3.6-2.2 5.9-2.3h10.9c1.9 0 3.4-1.5 3.4-3.4v-7.9z"/><path class="st0" d="M232.8 99.3h-9.2v-.2s-.3-3 2.2-3.6h1.3s.4.3 1.1.3c.8 0 1.1-.3 1.1-.3h1.2c2.5.6 2.2 3.6 2.2 3.6l.1.2zm-4.6-4.7c-1.3 0-2.4-1.4-2.4-2.7 0-1.3 1.1-2.4 2.4-2.4 1.3 0 2.4 1.1 2.4 2.4 0 1.3-1.1 2.7-2.4 2.7zm-113.5 6c.5-1.3.5-3 .5-3.1v-3.9c0-1.2 1-2.1 2.1-2.1h6c1.2 0 2.1 1 2.1 2.1v3.7c0 1.2-1 2.1-2.1 2.1h-5c-1.5.1-3.1 1.5-3.1 1.5l-.9.8.4-1.1zm10.2-7c0-.9-.7-1.6-1.6-1.6h-6c-.9 0-1.6.7-1.6 1.6v4c0 .2 0 1.3-.3 2.3.7-.5 1.7-1 2.8-1.1h5.1c.9 0 1.6-.7 1.6-1.6v-3.6z"/><path class="st0" d="M122.4 97.7h-4.3v-.1s-.1-1.4 1-1.7h.6s.2.1.5.1c.4 0 .5-.1.5-.1h.6c1.3.3 1.1 1.7 1.1 1.8zm-2.1-2.1c-.6 0-1.1-.7-1.1-1.3 0-.6.5-1.1 1.1-1.1.6 0 1.1.5 1.1 1.1 0 .6-.5 1.3-1.1 1.3z"/></svg>