<svg xmlns="http://www.w3.org/2000/svg" viewBox="0 0 81.6 16.7" style="enable-background:new 0 0 81.6 16.7" xml:space="preserve"><path d="M6.6 10c0-1.4 0-3.1.1-4h-.1c-.4 1.6-1.4 4.9-2.1 7.2H3.2c-.6-2-1.6-5.6-1.9-7.2h-.1c.1 1 .1 2.8.1 4.2v3.1H0V5h2.2c.7 2.1 1.5 5.1 1.8 6.4.2-1 1.2-4.2 2-6.4h2v8.2H6.6V10zm8.4-.4h-3.6v2.5h4l-.2 1.2H10V5h5.2v1.2h-3.8v2.1H15v1.3zm6.7 0h-3.6v2.5h4l-.2 1.2h-5.2V5h5.2v1.2h-3.8v2.1h3.6v1.3zm3.4-3.4h-2.3V5h6.1v1.2h-2.3v7h-1.5v-7zm20.7 10.3L41.1 12l3.7-5.4H42l-2.5 3.8-2.6-2.5c1.9-1.1 2.9-2.3 2.9-4.1 0-2-1.3-3.8-4.1-3.8s-4.3 1.9-4.3 4c0 1.4.6 2.5 1.7 3.7-2.4 1.4-3.2 2.8-3.2 4.5 0 2.6 1.9 4.5 4.9 4.5 2.3 0 3.5-.9 4.8-2.6l2.5 2.4h3.7zM35.6 2c1.3 0 1.7.9 1.7 1.8s-.5 1.7-2 2.6c-1-1-1.4-1.7-1.4-2.6 0-1 .7-1.8 1.7-1.8zm-.5 12.3c-1.6 0-2.4-1.1-2.4-2.3 0-1.1.4-1.9 1.9-2.8l3.4 3.4c-.9 1.1-1.7 1.7-2.9 1.7zm12.6-3.2c.1.9.7 1.4 1.6 1.4 1 0 1.4-.4 1.4-1.1 0-.8-.4-1.1-1.7-1.5-1.8-.5-2.5-1.2-2.5-2.4 0-1.5 1.1-2.3 2.7-2.3 1.9 0 2.7 1 2.8 2.3h-1.4c-.1-.7-.5-1.2-1.4-1.2-.8 0-1.2.4-1.2 1 0 .7.4.9 1.6 1.2 2.1.6 2.6 1.4 2.6 2.6 0 1.4-.9 2.4-2.9 2.4-1.8 0-2.9-.9-3-2.5h1.4zm5.9-5.8h2.9c1.5 0 2.8.8 2.8 2.4 0 1.7-1.2 2.5-3 2.5H55v3.3h-1.5V5.3zM55 9h1.3c1 0 1.6-.3 1.6-1.3 0-.9-.6-1.3-1.5-1.3H55V9zm10.7.8h-3.6v2.5h4l-.2 1.2h-5.2V5.3h5.2v1.2h-3.8v2.1h3.6v1.2zm3.2 1.6-.7 2.1h-1.4c.3-.8 2.3-7.3 2.6-8.2h1.9l2.7 8.2h-1.5l-.7-2.1h-2.9zm2.5-1.3c-.6-1.8-1-3-1.1-3.8-.2.9-.6 2.2-1.1 3.8h2.2zM75 5.3h1.4v3.9c.9-1.1 2.3-2.8 3.2-3.9h1.7l-2.9 3.4 3.1 4.9h-1.7l-2.3-3.9-1 1.1v2.8H75V5.3z"/></svg>